<svg id="图层_1" data-name="图层 1" xmlns="http://www.w3.org/2000/svg" viewBox="0 0 478 392"><defs><style>.cls-1{fill:#fefefe;}.cls-2{fill:#030202;}.cls-3{fill:#14212f;}.cls-4{fill:#030304;}.cls-5{fill:#8e949b;}.cls-6{fill:#010101;}.cls-7{fill:#020101;}.cls-8{fill:#020202;}.cls-9{fill:#030303;}.cls-10{fill:#1c252d;}.cls-11{fill:#141e28;}.cls-12{fill:#010710;}.cls-13{fill:#050504;}.cls-14{fill:#131b25;}.cls-15{fill:#060609;}.cls-16{fill:#070a10;}.cls-17{fill:#2f3d4b;}.cls-18{fill:#293643;}.cls-19{fill:#1e252b;}.cls-20{fill:#0f090b;}.cls-21{fill:#151d26;}.cls-22{fill:#040405;}.cls-23{fill:#43505c;}.cls-24{fill:#0d1018;}.cls-25{fill:#1b242e;}.cls-26{fill:#080b0b;}.cls-27{fill:#170e0f;}.cls-28{fill:#0d0506;}.cls-29{fill:#100d0d;}.cls-30{fill:#1f2937;}.cls-31{fill:#344150;}.cls-32{fill:#090b11;}.cls-33{fill:#080a0e;}.cls-34{fill:#131f2a;}.cls-35{fill:#0f1116;}.cls-36{fill:#0a0709;}.cls-37{fill:#07090e;}.cls-38{fill:#070409;}.cls-39{fill:#849fba;}.cls-40{fill:#0e1724;}.cls-41{fill:#0d121b;}.cls-42{fill:#04060b;}.cls-43{fill:#29343f;}.cls-44{fill:#31424e;}.cls-45{fill:#17242f;}.cls-46{fill:#2f250e;}.cls-47{fill:#4e3819;}.cls-48{fill:#1b232d;}.cls-49{fill:#192937;}.cls-50{fill:#08121b;}.cls-51{fill:#88a2bb;}.cls-52{fill:#070d14;}.cls-53{fill:#515f71;}.cls-54{fill:#060405;}.cls-55{fill:#0a1117;}.cls-56{fill:#142929;}.cls-57{fill:#162628;}.cls-58{fill:#04080c;}.cls-59{fill:#03060a;}.cls-60{fill:#180b09;}.cls-61{fill:#381c20;}.cls-62{fill:#0b0304;}.cls-63{fill:#693c38;}.cls-64{fill:#272727;}.cls-65{fill:#18181c;}.cls-66{fill:#3c3c3c;}.cls-67{fill:#202020;}.cls-68{fill:#060101;}.cls-69{fill:#090d11;}.cls-70{fill:#222832;}.cls-71{fill:#010206;}.cls-72{fill:#afafaf;}.cls-73{fill:#07060c;}.cls-74{fill:#070100;}.cls-75{fill:#363636;}.cls-76{fill:#06070a;}.cls-77{fill:#c5c5c7;}.cls-78{fill:#220d0d;}.cls-79{fill:#2a2a2a;}.cls-80{fill:#2b3031;}.cls-81{fill:#050405;}.cls-82{fill:#14171a;}.cls-83{fill:#0a0006;}.cls-84{fill:#00010a;}.cls-85{fill:#170305;}.cls-86{fill:#c47476;}.cls-87{fill:#a65e63;}.cls-88{fill:#522627;}.cls-89{fill:#512121;}.cls-90{fill:#000906;}.cls-91{fill:#210a08;}.cls-92{fill:#2f2f2f;}.cls-93{fill:#323232;}.cls-94{fill:#2b2b2b;}.cls-95{fill:#757575;}.cls-96{fill:#c9c9c9;}.cls-97{fill:#d3d3d3;}.cls-98{fill:#161616;}.cls-99{fill:#797979;}.cls-100{fill:#d7d7d7;}.cls-101{fill:#555;}.cls-102{fill:#676767;}.cls-103{fill:#060000;}.cls-104{fill:#454545;}.cls-105{fill:#3a3a3a;}.cls-106{fill:#070000;}.cls-107{fill:#2c2c2c;}.cls-108{fill:#343434;}.cls-109{fill:#4c4c4c;}.cls-110{fill:#383838;}.cls-111{fill:#2f3330;}.cls-112{fill:#171717;}.cls-113{fill:#4f4f4f;}.cls-114{fill:#0d0b0e;}.cls-115{fill:#242424;}.cls-116{fill:#05000d;}.cls-117{fill:#292929;}.cls-118{fill:#575757;}.cls-119{fill:#070001;}.cls-120{fill:#4e4e50;}.cls-121{fill:#6d6d6d;}.cls-122{fill:#302e2c;}.cls-123{fill:#dbdbdb;}.cls-124{fill:#080000;}.cls-125{fill:#0f0105;}.cls-126{fill:#f88a8d;}.cls-127{fill:#985e60;}.cls-128{fill:#784544;}.cls-129{fill:#cf7f7d;}.cls-130{fill:#c1c1c2;}.cls-131{fill:#d8d8d8;}.cls-132{fill:#bab9ba;}.cls-133{fill:#eaeaea;}.cls-134{fill:#d3d4d3;}.cls-135{fill:#ededed;}.cls-136{fill:#ddd;}.cls-137{fill:#c5c4c7;}.cls-138{fill:#cfcfcf;}.cls-139{fill:#b9b9b9;}.cls-140{fill:#ccced8;}.cls-141{fill:#cbcac8;}.cls-142{fill:#b4696c;}.cls-143{fill:#c97475;}.cls-144{fill:#c47172;}.cls-145{fill:#a45c5f;}.cls-146{fill:#d57c7e;}.cls-147{fill:#eee;}.cls-148{fill:#c37b7d;}.cls-149{fill:#fd8c8e;}.cls-150{fill:#fd8b8d;}.cls-151{fill:#fa8c8e;}.cls-152{fill:#f48b8d;}.cls-153{fill:#d98181;}.cls-154{fill:#f2918f;}.cls-155{fill:#ed8e8c;}.cls-156{fill:#e18589;}.cls-157{fill:#a0a0a0;}.cls-158{fill:#d2d2d2;}.cls-159{fill:#bbbdbb;}.cls-160{fill:silver;}.cls-161{fill:#939393;}.cls-162{fill:#dfe0e0;}.cls-163{fill:#bfbfbf;}.cls-164{fill:#d4d4d4;}.cls-165{fill:#c3c5c4;}.cls-166{fill:#ccc;}.cls-167{fill:#bbb;}.cls-168{fill:#a2a2a2;}.cls-169{fill:#c0c0c1;}.cls-170{fill:#f8908d;}.cls-171{fill:#d57a7c;}.cls-172{fill:#f1958d;}.cls-173{fill:#e6807f;}.cls-174{fill:#f69392;}.cls-175{fill:#cacaca;}.cls-176{fill:#f0f0f0;}.cls-177{fill:#edeeec;}.cls-178{fill:#f99091;}.cls-179{fill:#eb8a87;}.cls-180{fill:#f6898f;}.cls-181{fill:#f9908f;}.cls-182{fill:#fe898f;}.cls-183{fill:#fd8f95;}.cls-184{fill:#f79186;}.cls-185{fill:#f39391;}.cls-186{fill:#080808;}</style></defs><title>8</title><path class="cls-1" d="M373,391.91q-184.18,0-368.36.09C.85,392,0,391.16,0,387.41Q.18,226.73.1,66.06C4,67.57,2.52,72,4.64,74.43a14.42,14.42,0,0,1,.56,1.36,13.76,13.76,0,0,0,2.24,3.85c6.81,10.42,17.15,13.66,28.8,14,12.13.3,24.28.42,36.25-2.18A12.17,12.17,0,0,1,74,91.17c1.79-.17,4.29-.87,4.84,1.16.59,2.19-2.09,2.55-3.66,3.27-7,3.16-14.61,2.94-21.89,4.57a16.48,16.48,0,0,0-4.92,1.54c-4.76.84-7.44,5.26-11.75,6.88-3.18-.81-1.55,2-2.28,3a20.84,20.84,0,0,1-.43,2.74,18.21,18.21,0,0,0-.4,1.95c-.65,7.92-.65,7.92,7.21,10.24a30.2,30.2,0,0,1,4.54.61c5.31,1.22,10.4-.85,15.61-1a13.76,13.76,0,0,1,2.37-.45c6.66-1.11,13.31-2.17,19.94-3.55s13.45.31,19.7,3.32c.46.18.91.41,1.35.63,3.87,1.6,7.51,3.73,11.53,5a10.33,10.33,0,0,1,1.33.55c9.61,4.47,19.75,7.65,29.45,11.92,4.42,1.94,8.48,4.47,12.76,6.61,7.46,3.91,13.32,9.74,18.93,15.83,4.21,4.59,4.73,10.8,6.86,16.31,1.52,4.18,2.07,8.58,3,12.9,1.73,8.11,3.22,16.27,4.84,24.41.68,3.06,1.27,6.13,2,9.18a10,10,0,0,1,.35,1.55c1,5.22,1.79,10.47,2.83,15.68,2.11,10,4.13,19.94,6.31,29.89a22.24,22.24,0,0,0,.49,2.92c1.65,8.27,1.64,8.27-6.41,10.2-5.49,1-10.87-.87-16.31-.67-10.26.36-20.5,1.61-30.76.89-11.21-.8-22.48-.72-33.65-2.12-3.87-.48-7.56-1.49-9.26-5.64-2.21-3.15-1.92-7.14-3.51-10.49-.48-2.17-1.18-3.65-3.48-1.38-3.77,3.71-2,8.07-1.44,12.24.18,1.47,1.2,2.73,1.89,4.06,2,4.68,4,9.48,10.41,9.29,2.64.55,5.3.28,7.94.29,9.27,0,18.47.08,27.71,1.73,7.82,1.39,15.79-.71,23.69-1.28,9.15-1.31,18.17.9,27.27,1.08,1.28,0,2.63.59,3.93.43,7.7-1,13.15,2.27,16.92,8.77,8.31,10.85,19.42,18.12,31.3,24.39a13.27,13.27,0,0,1,1.17.64,29.38,29.38,0,0,0,3.45,1.75c.4.17.78.38,1.17.59,1.94,1.1,4,1.92,6,2.91,5.37,2.9,10.67,5.93,16.68,7.36a5.86,5.86,0,0,1,4.27,3.78c3.12,8.18,7.5,15.79,10.91,23.84A107.33,107.33,0,0,0,300,382.05c1.55,3.36,4.26,3.64,7.5,3.08,10.45-1.79,20.6-4.79,30.8-7.59a47.6,47.6,0,0,1,5.3-1.29c3.38-.12,6.37-1.66,9.45-2.79,7-2.56,7.75-2.35,11.44,4.05.66,1.15,1.29,2.32,2,3.45a48.54,48.54,0,0,0,5.25,8C372.28,389.9,373.51,390.54,373,391.91Z" transform="translate(0 0)"/><path class="cls-1" d="M124.05.1Q299,.1,473.91,0c3.42,0,4.1.67,4.09,4.09Q477.82,127,477.9,250c-3.75-1.13-2.62-4.92-4-7.35-2.18-3.86-1.63-8-1.25-12.13-.11-2.29,1-4.44.85-6.74.06-1.77.06-3.55.06-5.33.52-4.85,0-9.37-4.08-12.74a10.65,10.65,0,0,1-.89-1.2c-2-3.1-5.12-3.53-8.28-3.14-6,.76-9.74-1.84-11.8-7.3a13.93,13.93,0,0,1-.62-1.29,25.37,25.37,0,0,0-5.88-8.46c-1.88-2.08-3.37-4.33-3-7.33.45-2.45,1.63-4.72,1.71-7.26a14.75,14.75,0,0,1,.42-2.28,51.74,51.74,0,0,0,0-14.86c-.69-3.09-.14-6.61-3.14-8.88-8.91-9-19.66-10.9-31.6-8.35-1,0-1.94,0-2.91,0a15.65,15.65,0,0,0-5.28,1.44,66.16,66.16,0,0,0-6.15,3c-5.89,2.77-12.07,4.94-17.5,8.64a12.43,12.43,0,0,1-1.21.72c-6,3.11-11.86,6.52-17.75,9.84a125.81,125.81,0,0,0-11.24,6.81c-5.28,2.12-9.52,5.9-14.24,8.91a251.42,251.42,0,0,1-30.6,16c-3.83,1.26-5.33-2.11-6.19-4.21-2-4.82-5.34-8.34-8.86-11.86-3.75-4.38-7.5-8.75-11-13.34a94.11,94.11,0,0,0-6.18-8.94c-3.78-4.78-5.09-11.26-10.37-15a4.29,4.29,0,0,1-.76-1.2,9.49,9.49,0,0,1-.37-1.39c-.29-2.91-2-5.18-3.38-7.61-4-7-7.55-14.29-11-21.61-2.08-4.26-3.92-8.64-6.57-12.59a9.09,9.09,0,0,1-.72-1.14C233,89.49,232,87,229.67,85.37a13.77,13.77,0,0,1-1.75-2.93c-2.13-5.88-6.35-10.32-10.35-14.91-1.51-2.62-3.81-4.54-5.86-6.67-.76-.78-1.51-1.56-2.25-2.36A17.21,17.21,0,0,0,205.91,55a11.59,11.59,0,0,1-1-.86c-2.68-2.57-5-5.52-8.25-7.5-2.08-1.67-4.1-3.44-6.65-4.41A184.74,184.74,0,0,0,168.59,30a6.6,6.6,0,0,0-1.68-1c-7-1.67-11.42-6.53-15.34-12.06A44.75,44.75,0,0,0,142,8.68,44.31,44.31,0,0,0,127.6,2.54C126.21,2.23,124.05,2.6,124.05.1Z" transform="translate(0 0)"/><path class="cls-1" d="M373,391.91l-2-2.07a3.3,3.3,0,0,1,1.82-1c4.89-1,4.91-1.07,3-5.45-1.61-4.11-2.93-8.32-4.35-12.5-1.5-4.43-3.3-9-9.06-9.68-9.33,2.57-18.25,6.39-27.66,8.66-6.91,1.76-13.81,3.52-20.66,5.48-5.88,1.67-7.79.72-10.08-4.79-2-4.75-4.2-9.38-6.28-14.08-1.87-6.72.08-8.63,7.25-7.55,15.3,2.3,30.68,2.21,46.07,1.17,14.36-.94,28.31-4.52,41.94-8.58,14.86-4.43,28.19-12.59,40.72-21.83a72.42,72.42,0,0,0,10.34-8,13.34,13.34,0,0,0,2.09-2.58,82.25,82.25,0,0,1,5.14-7.14,8.44,8.44,0,0,1,1-.93c1.54-1.05,2.17-2.69,2.83-4.33,4.53-6.11,6.27-13.31,7.95-20.52.69-3.69,2.05-7.24,2.15-11,1.73-4.59,6.43-6.68,9-10.61,1.25-.85,1.67-3,3.77-2.54q0,68.22.09,136.44c0,3-.6,3.59-3.58,3.58C440.59,391.86,406.77,391.91,373,391.91Z" transform="translate(0 0)"/><path class="cls-1" d="M.1,65.06C.1,44.63.19,24.2,0,3.77,0,.5.93,0,3.9,0Q56,.18,108.05.1a.94.94,0,0,1,.3.8c0,.3-.09.44-.16.44-4.1,2.54-7.29,6.09-10.58,9.55-2.51,1.18-5.07,2.32-5.58,5.53a59,59,0,0,0-2.2,5.68c-.38,1.09-.71,2.2-1,3.32-.57,1.64-.52,3.38-1,5-.19,9.74-4.16,18.22-8.6,26.6-1.94,3.65-5.13,5-8.68,6-10.6.71-21.22.44-31.82.19-4.94-.11-9.23-2.43-12.81-5.93-1.76-1.73-3.38-3.72-6.09-4a8.48,8.48,0,0,1-2.12-.91c-6.63-2.44-9.15-1.26-12.81,6C3.4,60.68,3.6,64.23.1,65.06Z" transform="translate(0 0)"/><path class="cls-2" d="M97.06,10.19C99.86,6.12,103,2.48,108,1c1.91-1.08,4.19.35,6.07-.91h10c6.55,2.14,13.6,3.13,19,8.05,3.33,3.47,7.66,6,9.6,10.75.37.9,1,1.66.78,2.72C152,23.68,150,23.34,148,23c-.44-.18-1-.38-1.14-.8-.62-1.44-1.51-2-2.7-1.55a17.94,17.94,0,0,1-3.56-2,21.13,21.13,0,0,1-2.6-2.4c-8.16-6.15-17-8.49-27-5.08-1.15.57-2.8-1-3.66.88A4.67,4.67,0,0,1,104,14.55a20.56,20.56,0,0,0-4.7.34c-1.76,0-2.88-.73-3-2.58A3.88,3.88,0,0,1,97.06,10.19Z" transform="translate(0 0)"/><path class="cls-3" d="M477.9,252,475,255.15c-1.05-.93-.71-2.13-.63-3.27a10.71,10.71,0,0,0-3.76-9.31c-4-3.65-4.51-5.4-1.54-9.92,1.89-2.87,1.32-7.41,5.63-8.68l-.92,6.87c-2.17,4-3.06,7.84,1.05,11.23,1.68,2.38,1.07,5.66,3.08,7.9Z" transform="translate(0 0)"/><path class="cls-4" d="M.1,65.06,4,58c.72-.67,1.32-1.67,2.58-1,1.34,1,2.14,2.89,1.22,3.89-3.51,3.77-2.2,8.31-2.63,12.59a2.53,2.53,0,0,1-1.23,2C1.62,72.77,1.76,69.06.1,66.06Z" transform="translate(0 0)"/><path class="cls-5" d="M114.05.1c-1.84,1.54-4,1-6.07.91a2.17,2.17,0,0,0,.07-.91Z" transform="translate(0 0)"/><path class="cls-6" d="M372.87,389.76l-1.9.08a36.69,36.69,0,0,1-5.05-7.86c-4.92-12.65-3.43-11.35-14.86-7.21-2.31.84-4.81,1.17-7,2.35a348,348,0,0,1-36.48,9.41c-3.81.71-7.81,1.26-8.74-4.23-1.12-4-2.31-8-5-11.29-3.06-7.93-7.2-15.39-9.87-23.49a5.08,5.08,0,0,0-3.51-3.17c-1.3-.49-3.12-.16-3.62-2.06.84-1.3,2.7-1.06,3.6-2.33-2.06-.69-2.06-.69-3.64,2.28-4.66.37-8.2-2.45-12.1-4.23-2.82-1.57-5.11-4.32-8.81-3.92l0,0c.07-3.49-2.78-1.19-4-2l0,0c-.71-2.63-4.14-1.61-5.15-3.85.5-.93,1.59-1.7.19-2.91-1.1-1-2.25-2.21-.51-3.7,2.64-1,4.86.39,7,1.42,6.12,2.93,12.69,4.81,18.73,7.92,1.72.72,3.34,1.66,5,2.44,1.36,1.2,3,1.22,4.7,1.16,7.1.75,13.81,3.33,20.89,4.19,2.13.26,4.22.87,6.4.76a46,46,0,0,1,13.73,1.32c3.37,1.19,6.87.52,10.31.67,5.54,0,11.09,0,16.63,0a7.67,7.67,0,0,0,5.29-1.32c5.17-1,10.62-.52,15.51-3,6.39-1,12.58-2.95,18.86-4.45a80.57,80.57,0,0,0,18.76-7.68A222.48,222.48,0,0,0,430,312.18c3.22-2.43,6.94-4.25,9.4-7.63,2.31-1.78,3.63-4.48,5.87-6.34,1.44-.85,3.13-1.51,2.8-3.71a10.29,10.29,0,0,1,2.63-4.65c1.8.08,3.92-2.38,5.34.18a4.49,4.49,0,0,1-1.39,6.2c-2.34,1.57-1.93,4-2.58,6.17-1.12,3-3.41,5.16-5.39,7.54-2.91-1.63-2,1.24-2.71,2.28-2.55,3.13-6.51,4.64-9,7.84a123.94,123.94,0,0,1-39.77,22c-13.87,4.61-28.17,8.29-43,9a254.72,254.72,0,0,1-36.44-.26c-3.5-2.2-7.53-1.13-11.28-1.82-1.51-.11-3,0-4.55-.21-2.73-1.86-4.42-1.54-4.49,2.16.09.41.15.84.23,1.25a10.09,10.09,0,0,0,1.85,3.29,23.81,23.81,0,0,0,1.86,2.69c.58,3.5,2.77,6.43,3.53,9.86,1.2,2.52,1.08,5.78,4.12,7.27a9,9,0,0,0,8-.48,20,20,0,0,1,6.47-1.85,10.72,10.72,0,0,0,4.76-1.46c3.07.07,5.53-2.34,8.64-2.13,9.55-2.53,19.06-5.18,28-9.45,2.4-1.78,3.12.7,4.3,1.77,6.35,5.73,6.34,14.3,9.52,21.46C377.93,388.09,377.67,388.53,372.87,389.76Z" transform="translate(0 0)"/><path class="cls-7" d="M247,321.94c-1.3,3.38,2.7,3.1,3.51,5.11-.86,1.44-2.32.66-3.5.89-8-2.59-14.12-8.07-20.15-13.59-2.81-2.57-4.54-6.24-8-8.17-3.18-5.87-7.72-8.12-14.75-8.58a383,383,0,0,0-44.56-.44c-4.32,0-8.57,1.41-12.89-1.4-2.3-1.5-5.78-.38-8.63.68-9.05-.22-18.1.45-27.13-.36-7.37.69-7.74-5.6-10-10a91.15,91.15,0,0,1-1.64-11.24c-.43-4.73,2.15-6.45,6.73-4.85,2.18,3,2.09,6.74,3,10.14,1.23,5.75,2,6.62,8.28,6.77,7,.16,14,1.41,21.13.65,1.72-.19,3.64-.56,5.24.71a95.49,95.49,0,0,0,16.93.95,299,299,0,0,1,36.91-.1c2.27.14,4.27,1.57,6.73,1.46,4.91-.23,5.38-.78,3.46-5.22-.4-.92-.94-1.77-1.32-2.7-3.53-11.2-5.81-22.71-8.11-34.21a27.07,27.07,0,0,0-1.62-4.69c-.39-4.68-.69-9.38-2.62-13.77a.38.38,0,0,1-.12-.62,64.77,64.77,0,0,0-1.37-9c-1.23-5.75-2.18-11.55-3.4-17.31-.57-2.71-.52-5.6-2.17-8l-3-12.89a39.94,39.94,0,0,0-6.91-18,9.85,9.85,0,0,1-.3-2.48c0-3.55,1.79-5.29,5.32-5.29,5.44,1.37,7,6.24,9.09,10.46,2.31,4.63,2.58,9.91,3.84,14.88,2.43,9.6,4.76,19.24,5.53,29.18.28,3.65,2.11,6.95,3,10.51,2.67,10.92,2.93,22.23,6.22,33.09,1.94,6.4,2.06,13.36,4.86,19.62,2.65,6.87,5.84,13.51,9,20.17a24.26,24.26,0,0,0,7.74,10.85,16.2,16.2,0,0,1,1.44,1.43c3.18,3.78,7.16,6.68,10.79,10a7.24,7.24,0,0,0,3.87,2.69C250.79,320.38,248.7,321.26,247,321.94Z" transform="translate(0 0)"/><path class="cls-8" d="M182,157c-2.26.92-4.8,1.62-4,5-2.86.75-3.48-2.87-5.89-3a4.13,4.13,0,0,1-1.13-.66c-.6-.89-1.16-1.83-2.42-1.84a6,6,0,0,1-2.38-1.95c-.75-1.48-2.32-1.4-3.59-1.89a4.88,4.88,0,0,1-1.48-1.27c-2.79-2.79-7.55-2.68-9.6-6.53.08-.34.22-.52.42-.52-.45,0-.79.37-1.24.51-6.56-1.05-12.12-4.71-18.28-6.78-5.57-1.87-10.94-4.28-16.62-5.82l.06.05A39.34,39.34,0,0,0,104.06,127h0c-6-3.5-11.83-7.18-19.45-4.66a16,16,0,0,1-8.35.68,5.49,5.49,0,0,1-1.3-.48c-1.5-1.06-3-1.8-4.77-.53-.56.84.73,2.16-.69,2.78a20.74,20.74,0,0,1-7.68,1.24c-.9,0-1.81.59-2.71,0A3.7,3.7,0,0,0,56,125a3.75,3.75,0,0,1,3.28,1.26,1.07,1.07,0,0,1-.64,1.16c-2.3.23-4.62-.24-6.9.33-2,.43-4,.12-6,.3l-.75.08-4.9-.3c-.7-1.64-1.8-2.87-3.72-2.67-3.37.34-4-1.55-3.77-4.29.17-2.48-.31-5,.39-7.44l.26-2.41c2.12.14,4.35-1,6.36.52a3.5,3.5,0,0,1-.13,2.17c-1.5,6-.86,6.74,4.82,7,8.29.35,16.22-1.55,24.16-3.5,2.44-.6,4.91-.44,7.37-.58,2.91,0,5.26-2.33,8.25-1.94,3.75-.33,7.61.78,11.25-.89a4,4,0,0,1,1.39-.37c3.3,2.67,1.13-2.17,2.64-2,2-1.75,3.18-4.22,5.4-5.72.41-.09.49.83.81.45s-.23-.81-.38-1.26c0-4.29.89-8.51.35-12.84a35.2,35.2,0,0,0-6-16,7.1,7.1,0,0,1-1.48-3.63,3.58,3.58,0,0,1,2.57-3.71c2.47-.29,3.68,1.5,5,3,4,7.2,7.54,14.5,8.16,23,.5,6.87-1.61,12.66-5.46,18-2.81,3.92-2.71,4.16,1.68,6.35,5.18,2.6,10.85,4.42,15.68,7.36,3.19,2,6.28,1.75,9.33,2.77a28.32,28.32,0,0,0,6.92,2c5.63,2.25,11.63,3.72,16.4,7.78,1.86,1.83,3.33,4.27,6.43,4.18a3,3,0,0,1,1.2.54c0,2.66,2.2.74,3.16,1.44a5.44,5.44,0,0,1,3.17,2.51c.24,2.13,2.06,1.89,3.47,2.27C178.84,151.5,182.15,152.75,182,157Z" transform="translate(0 0)"/><path class="cls-9" d="M3.91,75.51c0-2.33.49-4.74,0-7C3.41,66,3.69,64,5.73,62.38S7,58.87,6.07,57a.9.9,0,0,1-.27-.79c0-.29.11-.43.18-.43,2.29-1.72,4.62-3.4,6.85-5.21,1.66.22,3.41-.53,5,.53l1.3,1.1a3.8,3.8,0,0,1,1.69,1.18c2,3.8,4.69,6.71,9.1,7.6a6.12,6.12,0,0,1,1.33.55A5,5,0,0,1,33,63.76c1,4.18-2.56,3-4.44,3.83a5.39,5.39,0,0,1-1.39,0,5.66,5.66,0,0,1-2.81-1.8,9.39,9.39,0,0,0-3.89-3.11,4.45,4.45,0,0,1-1.5-2c-.38-1.1-1.3-1.34-2.32-1.39-1.46,0-2.94-.13-4.09,1.06-5.06,7-3.22,16.6,4.14,22.29A25,25,0,0,0,29,87.46c1.92,1.64,4,1.1,6.13.47,3.86-.46,7.73-.16,11.59-.29,2.48,0,5,.28,7.4-.59,3.29-.4,6.58-1,9.79-1.66a29.63,29.63,0,0,1,22,3.43,4.66,4.66,0,0,1,2.62,4,15.51,15.51,0,0,1-7.94,10.46c-9.56,4.82-19.85,4.29-30.08,4.14-1.65,0-3.32-.12-4.68,1.11a11.42,11.42,0,0,1-1.77,1.15,9.14,9.14,0,0,1-1.36.48,14.34,14.34,0,0,1-4.38.48c-1.76.07-3.31-.06-2.27-2.52,3.93-2.32,6.43-6.94,11.64-7.17a12.89,12.89,0,0,0,4.33-1.66c3.75-1.52,7.73-1.82,11.69-2.07,5.38-.34,10.19-2.22,15.9-5-5.41-.22-9.5,1.22-13.7,1.71a151.45,151.45,0,0,1-38.7.07A27.94,27.94,0,0,1,5.66,79.2c.64-1.61-1.15-2-1.54-3.14l-.28-.21Z" transform="translate(0 0)"/><path class="cls-10" d="M143.05,288.91c-2.09-1.53-4.56-1.09-6.74-.78-7.27,1-14.47-.49-21.72-.22-4.77.18-6.62-2.74-5.61-7.8,1.55,4.06,4.79,5.42,8.84,5.74,18.16,1.45,36.35,2.85,54.57,1.59,8.83-.61,17.55.5,26.33.34,2.81-.21,5.64-1,8.42.19-1.26,3.09-3.93,2.55-6.29,2.24-13.86-1.85-27.76-.62-41.64-.62C153.82,289.59,148.41,289.79,143.05,288.91Z" transform="translate(0 0)"/><path class="cls-11" d="M159.06,296c12.8,0,25.6-.09,38.4,0a89,89,0,0,1,12.83,1.08,8.29,8.29,0,0,1,5.89,4.14c1.18,2,2.63,3.81,4,5.71q.36.41.18.72c-.12.2-.23.31-.32.31-4.63-7.86-11.82-9.59-20.43-9.61-9.06,0-18.11-1.6-27.24-1.28-4.23.72-8.49.2-12.74.31A.93.93,0,0,1,159.06,296Z" transform="translate(0 0)"/><path class="cls-12" d="M152,144c1.2,2.68,4.15,2.74,6.21,4.12,1.35.91,3.2,1.14,3.72,3a3.14,3.14,0,0,1-3.07-.1c-13.64-7.92-28.84-12.27-43.08-18.83,6.16-.23,11.28,3.15,16.88,4.89,6.53,2,12.31,6.22,19.34,6.88Z" transform="translate(0 0)"/><path class="cls-13" d="M75.07,122c4.37-.23,8.67.4,13-1.76,3.37-1.68,7.23.16,10,2.57,1.88,1.62,5.71.39,6,4.17C95,123.47,85.92,121.61,76.2,125c-4.12,1.42-8.76,1.3-13.17,1.88-.62-.64-2.55.16-2-1.8a24,24,0,0,0,9-1C71.43,122.59,73.4,122.7,75.07,122Z" transform="translate(0 0)"/><path class="cls-14" d="M277,341.92c6.72,1.59,9,6.41,10.69,12.67,1.46,5.55,4.85,10.57,6.49,16.19a1,1,0,0,1-.25,1.25c-3.61-8.11-8.23-15.75-11.06-24.21a4,4,0,0,0-3.26-2.71c-6.5-1.49-12.27-4.66-17.95-8A2.56,2.56,0,0,1,265,337c3.42,3.07,7.81,3.79,12,5Z" transform="translate(0 0)"/><path class="cls-15" d="M220,308c0-.35.09-.69.14-1,2-.15,2.6,1,3.68,2.57,3.37,5.06,8.38,8.59,13.25,12.12,3.17,2.29,6.17,4.91,9.93,6.3,1.18,1.91,5.85-.26,4.88,4.17C239.63,326.21,228.26,319.14,220,308Z" transform="translate(0 0)"/><path class="cls-16" d="M197.25,243.92c2.25,4.9,2.81,10.25,4.06,15.41,1.84,7.56,3.8,15.09,5.71,22.63a1.63,1.63,0,0,1,.1,2.09c-3.41-1.69-2.17-5.66-4-8.14L197,246.09C196.46,245.29,196.31,244.53,197.25,243.92Z" transform="translate(0 0)"/><path class="cls-17" d="M158.89,151.09l3.07.09,1.1.83c1.19.93,3,.62,3.94,2.08a2.85,2.85,0,0,0,2,1.87c1.88-.55,1.32,1.35,2,2a2.37,2.37,0,0,0,.83.14c2.66,1.36,4.42,3.63,6.1,6,3.41,5.56,7,11,6,18.07C180.79,167.61,170.87,158.52,158.89,151.09Z" transform="translate(0 0)"/><path class="cls-18" d="M159,296.93l13.32.16c-9.36,1-18.63,2.92-28.18,1-8.52-1.73-17.27-.85-25.92-1.21-2.47-.11-5,.21-7.39-.79L139,296c2-1.63,4.38-1,6.06-.2C149.7,297.86,154.36,296.83,159,296.93Z" transform="translate(0 0)"/><path class="cls-19" d="M344.05,377.12c2.92-3.6,7.63-3.37,11.45-4.82,1.85-.7,4.75-3.72,6.56-1.29,2.28,3.07,4.37,6.69,3.86,11-3.09-2.38-2.26-8.26-6.86-8.8-3.93-.45-7.46,2.41-11.26,3.51C346.52,377.06,345.41,377.83,344.05,377.12Z" transform="translate(0 0)"/><path class="cls-20" d="M105.93,270c-5.56.18-6.12,1.09-5.33,6.35.47,3.19,1.62,6.47.24,9.74-3.13-5.67-4.64-11.33-.31-17.18C103.25,265.21,105,265.55,105.93,270Z" transform="translate(0 0)"/><path class="cls-21" d="M186.93,195c1.9.67,1.94,2.3,2.22,4,1.21,7,2.56,14,3.86,21-.36.55-.73.57-1.13,0C189.67,211.82,188.33,203.42,186.93,195Z" transform="translate(0 0)"/><path class="cls-22" d="M33,113.47c0,1.48.08,3,.1,4.46.06,3.39-1.14,7.53,5.07,6.19,3.69-.8,2.19,2,1.93,3.75C31.06,124.74,30.3,123.21,33,113.47Z" transform="translate(0 0)"/><path class="cls-23" d="M203.15,275.91c2.55,2.14,2.13,5.66,3.8,8.21,2,1.24,2.3,2.5,0,3.77l-8.26-.11c6.82-1.3,6.84-1.3,4.87-8.52A6,6,0,0,1,203.15,275.91Z" transform="translate(0 0)"/><path class="cls-24" d="M293.93,372c.08-.42.17-.83.25-1.24,4,2.86,4.7,7,4.65,11.51A41.78,41.78,0,0,1,293.93,372Z" transform="translate(0 0)"/><path class="cls-25" d="M197.25,243.92c-.09.72-.19,1.44-.28,2.17Q195.49,238,194,230c3.39.9,1.73,3.75,2.13,5.74C196.67,238.4,196.89,241.18,197.25,243.92Z" transform="translate(0 0)"/><path class="cls-26" d="M104.06,127c4.81-.19,8.54,2,11.82,5.28A50.32,50.32,0,0,1,104.06,127Z" transform="translate(0 0)"/><path class="cls-22" d="M36.08,108.09c.12,2,1.58,2,3,2a.62.62,0,0,1,.22.67c-.07.22-.15.33-.22.33-1.94,1.14-3.89,2.2-5.84,0C33.79,109.69,32.79,106.84,36.08,108.09Z" transform="translate(0 0)"/><path class="cls-27" d="M51.09,127l8-.23a1.7,1.7,0,0,1,2.13.3c-5.35,1.14-10.7,2.17-16.2,1.06a.71.71,0,0,1,.4-.4C47.22,127.07,49.3,128.2,51.09,127Z" transform="translate(0 0)"/><path class="cls-15" d="M265,337l-3.32.15-5.82-3c2.18-.67,4.6-3,5.85,1.32C262,336.44,264.25,335.54,265,337Z" transform="translate(0 0)"/><path class="cls-25" d="M191.88,220l1.13,0a17.8,17.8,0,0,1,.86,9.34C193.21,226.24,192.54,223.14,191.88,220Z" transform="translate(0 0)"/><path class="cls-15" d="M251.83,332.07c1.77-.16,5.13-3.49,4,2A7.16,7.16,0,0,1,251.83,332.07Z" transform="translate(0 0)"/><path class="cls-4" d="M4.12,76.06c1.07.83,2.9.73,3.15,2.5,0,.13-1,.42-1.61.64A4.33,4.33,0,0,1,4.12,76.06Z" transform="translate(0 0)"/><path class="cls-22" d="M61.18,127.11l-2.13-.3c0-.26,0-.52,0-.78l2-1,2,1.8Z" transform="translate(0 0)"/><path class="cls-28" d="M52.05,99.26c-1,1.78-2.57,1.92-4.33,1.66A8.06,8.06,0,0,1,52.05,99.26Z" transform="translate(0 0)"/><path class="cls-6" d="M452.08,302.4c-1.5-2.67-1.54-5.28,1.5-6.64,2.15-1,1.26-2.74,1.92-4.06a1.27,1.27,0,0,0-.37-1.76c-1.27-.73-1,.72-1.48,1.15-1.63,1.48-1.64-.88-2.56-1.14a1.06,1.06,0,0,1-.31-1.19c1-1.54,3.26-2.44,2.5-4.89a4.52,4.52,0,0,1,.05-2c1.14-2.55,2.54-5.08.57-7.85a8.27,8.27,0,0,1-.54-1.12c-.36-1.43-1.52-1.75-2.77-2a3.41,3.41,0,0,1-2.77-3,9.21,9.21,0,0,1,1.34-6.1,6.79,6.79,0,0,1,5.19-3.07,6.16,6.16,0,0,0,5-2.14c1.23-1.39,3-2.11,4.3-3.37,1-1,2.77-1.71,2-3.57s-2.23-2.31-4-2.37-3.65,0-5.47-.09c-2.37-.08-4.84-.17-5.9-2.78a5.51,5.51,0,0,1,1.47-6.78c2.13-1.87,4.68-3.21,6.6-5.35.49-.52,1-1,1.52-1.51,4.47-4.74,5.59-10.27,4-16.49-.46-1.81-1.26-3.15-3.31-2.94-8.19.85-16.17,2.42-23.07,7.35-1.67,1.61-1.37,3.74-1.2,5.65a19.23,19.23,0,0,1-4.23,14.4,17.68,17.68,0,0,1-8.5,7.92,13.18,13.18,0,0,0-7.42,4.64,6.53,6.53,0,0,1-1.32.73c-11.15,4.54-22.15,9.59-34.48,10.11-11,3.86-22.28,1.94-33.45,1.82-4.4,0-7.34-3.8-6.78-7,.64-3.67,4.28-5.54,8.92-4.56.64.13,1.29.27,1.93.43,5.11,1.46,10.33.46,15.49.68,5.5-2.06,11.34-1.76,17-2.38,5.08-1.65,10.43-2.25,15.43-4.19a19,19,0,0,0,4.57-1.84,23.12,23.12,0,0,0,5.41-2.79A35.59,35.59,0,0,0,421,233.52a8.13,8.13,0,0,1,.77-1.14,11.89,11.89,0,0,0,2.16-3.22c.53-1.22,1.09-2.59.27-3.72-1.08-1.49-2.36-.08-3.48.24-2.5.69-5.24.28-7.56,1.74-4.73,2.69-9.88,2.14-14.9,1.7-3.83-.34-5.87-2.68-5.06-6.81a7,7,0,0,1,5.58-4.41,131.44,131.44,0,0,0,26.62-7,6.55,6.55,0,0,1,1.46-.24c5.82-.91,9.54-5,13-9.16,1.64-2,1.33-4.64-.47-6.82-1.05-1.28-2.52-2.12-3.54-3.43a1.87,1.87,0,0,1-.05-1.32,1.7,1.7,0,0,1,.76-.6c1.7-.51,3.88-.69,2.21-3.39,5.43-1.45,7.16,3.25,10,6a.6.6,0,0,1,.29.77c.55,1.38.57,2.92,1.19,4.27,1.45,3.16,3,5.45,7.43,4.27,4.11-1.08,8.6-.89,12,2.71a.46.46,0,0,1,.46.58c3.55,3.76,4.14,8.58,4.76,13.39-.05,2-.09,4-.13,6-2.06,4-4.27,7.87-6.11,11.94-.89,2,0,3.88,1.86,5.08,5.5,3.45,6.14,8.44,4.55,14.16-2.36,3.88-6.13,6.44-9.14,9.72s-.5,7.57-1.8,11.18c-1.38,7.82-3.29,15.43-8.26,21.9-1.84.76-2,2.68-2.87,4.13A.83.83,0,0,1,452.08,302.4Z" transform="translate(0 0)"/><path class="cls-8" d="M285,174c3.17,4,8.81,6.19,9.08,12.33,2.72-.21,2.14,4,5,3.69,1.55-.31,3.07-.25,4.65-1.07,6.22-3.23,12.57-6.22,18.68-9.68,1.92-.39,3.77-.91,5-2.62a3.4,3.4,0,0,1,2.29-1c3.72-2.44,7.61-4.74,11.24-7.18,3.4-2.29,8.15-2.65,10.39-6.66a5.55,5.55,0,0,1,3.2-2.64c5.16-2.38,10-5.33,15-8.11,2.07-.16,3.66-1.37,5.28-2.48a3.31,3.31,0,0,0,3.05-2.53,18.64,18.64,0,0,0,7-3.29c2-1.55,4.75-2,7.37-2.26,1.86,1,3.34-.85,5.1-.69a3.71,3.71,0,0,1,2.22,2.72c-.53,3.49-3.2,1.2-4.45,2,.7.46,2.55-.84,3.13,1.12a2.68,2.68,0,0,1-1.54,1.43c-2.71,1.37-5.65,2.33-7.9,4.53a8.85,8.85,0,0,1-3.59.67,21.24,21.24,0,0,0-5.63.4c-2.22.39-4.36.86-3.76,3.94-2.15,4-6.65,4-10,6.06a7.2,7.2,0,0,0-3.42,1.84,39.41,39.41,0,0,0-5.17,3.94c-1.38.68-2.62,1.61-4,2.3a20.2,20.2,0,0,0-7.69,4.44,20.59,20.59,0,0,1-3.28,2.19,4.92,4.92,0,0,0-2.67,1.51,3.74,3.74,0,0,1-1,.79c-1.52.62-3.08,1.21-4.07,2.67a9.07,9.07,0,0,1-2.38,2.11c-1.31.57-2.8.81-3.78,2a7,7,0,0,1-2.17,1.4,12.19,12.19,0,0,0-6,3.8c-5,2.65-10.32,4.81-14.92,8.25-9.89,5.72-20.45,10.29-29.54,17.35a33.6,33.6,0,0,1-3.43,2c-2.59,1.58-5.25,2.52-7.69,0-2.63-2.74-1-5.15,1-7.41,3.67-2.49,7.23-5.14,10.84-7.72,3.4-3,7.76-4.3,11.56-6.59,2.85-1.71,2.77-3.14.52-5.27-4.92-4.62-9.92-9.18-14.19-14.45-.74-1.16-1.54-2.28-2.32-3.4-1.57-2.72-4.66-4.64-4.39-8.33.69-1,.69-1-1.92-1.26a6.56,6.56,0,0,1-2.27-1.62c-2.12-4.37-5.6-7.82-8.06-12-1.09-1.5-2.42-2.89-2.3-4.94,1.28-2.83-1-3.6-2.74-4.67a4.71,4.71,0,0,1-2.27-3.38c.29-2.18-.71-4-1.59-5.88-.5-1-1.11.47-1.67,0-1.28-.4-1.56-1.46-1.76-2.59a8.42,8.42,0,0,0-1.24-4.31,4.18,4.18,0,0,1-.35-1.3c1.3-2.2.47-6.54,5.26-5.22a3.58,3.58,0,0,1,.85,1,14.92,14.92,0,0,0,2.74,4.36,6.89,6.89,0,0,1,.78,1.08c.92,2.39,2.82,4.39,2.72,7.2-.08,2.12,2.24,2.1,3.19,3.33a.8.8,0,0,1,.21.75,16,16,0,0,1,4.8,7.58c1.16,1.67.65,4.37,3.23,5.18,1.65.8,1.5,3,3.07,3.88a3.79,3.79,0,0,1,.59,1.17,3.88,3.88,0,0,1,.09,1.4,14.34,14.34,0,0,1-.74,2.21c.56-.63.76-1.64,1.86-1.65,1.63.31,1.22,1.64,1.36,2.7-.08,2.82.34,5.24,4,5C279,167.11,280.93,171.59,285,174Z" transform="translate(0 0)"/><path class="cls-8" d="M28.08,67.09c.26-2.43,4.93,1,4-3a5.07,5.07,0,0,1,3.18-1.65c1.17.12,2.36.17,3.54.24,1.57.68,3.29,1.08,4.4,2.48,0,.89.25.53.52,0,1-1.32,1.91-2.63,3.79-2.58,9.45-.44,19,1.09,28.34-1.12a17.7,17.7,0,0,1,2.9-1.07c2-.2,1-2.18,1.69-2.92C89,48,86.08,35.86,88,24.86c.06-1-.29-2.12.71-2.9,1.93-1.59,1.94-4.15,3.11-6.13s1.94-4.7,5.26-3.74c.09,2,1.54,2,3,2,3.13,1.44.54,2.85,0,4.29-.56.76-1.12,1.53-1.67,2.3-1.62,2.43-1.67,5.29-2.17,8-.22,1.6-1.14,3.43.37,4.68s3.24-.2,4.51-.87c6.74-3.6,14-5.63,21.23-7.95,3.4-1.09,6.87-.66,10.32-.8s7,.53,10.27-1c1.35-.34,2.49-2,4.12-.7,2-.32,4.24.82,6-1l.59-.35a1.7,1.7,0,0,1,1,.77c.54,1.64,1.15,3.23,2.74,4.18a3,3,0,0,1,1,2.21c2.11,2.07,4.28-.49,6.4.09a13.07,13.07,0,0,1,4.29,1.11A126.92,126.92,0,0,1,191,41.27c.93,1.35-3.06,4.28,1.69,4.64,1.47.11.91,2.52.29,3.92s-1.86,1.74-3.29,1.2-2.91-1.61-4.58-1.88a14.31,14.31,0,0,1-4.41-2.31A14.48,14.48,0,0,1,177.6,44c-.75-1.59.56-3.57-1.18-5-2.72-2.31-4.66-.61-6.68,1.05-2.91,1.06-5.17-1.13-7.79-1.53a13.84,13.84,0,0,1-7.06-2.22c-1.7-1.18-3.77-.81-5.63-1.31a8.56,8.56,0,0,1-1.46-.47c-8.75-1.84-17.4-1.89-25.87,1.38a38.68,38.68,0,0,1-8.05,3c-.61.32-1.23.63-1.86.91a34.84,34.84,0,0,0-6.85,2.87c-5.86,3-10.39,7.49-14.27,12.71a19.84,19.84,0,0,1-1.47,1.43c-1.62,1.38-1.89,2.85-.32,4.45,2.92,1,6,1.8,8.19,4.13,1,1.28,2.55,1.55,3.76,2.42a1,1,0,0,1,0,1.2c-.59,1.09-2.19,1.53-2,3.11a1.63,1.63,0,0,1-1.87.32c-.57-1.78-2-1.63-3.37-1.39-2-.11-3.42-1.44-5.11-2.19-3.44-2.14-6.92-1.8-10.4-.12a5.78,5.78,0,0,1-2.71.17c-2.78-.82-4,2.64-6.6,2.42-9.66.31-19.32.39-29,0C35.83,71.12,31.2,70.91,28.08,67.09Z" transform="translate(0 0)"/><path class="cls-8" d="M396.94,140c-1.45-.13-1.48,5.48-4,1a1.52,1.52,0,0,1-.3-2c1.94-1.34,4.26-1.94,6.2-3.28.85-.31,1.79-.25,2.64-.58a21.49,21.49,0,0,0,4.46-1c12.58-2.92,23.87-1,32.94,9,3.07,3,.91,7.63,3.52,10.75-.17,4.72.4,9.45-.38,14.15-.07.66-.15,1.31-.22,2a62.69,62.69,0,0,0-2.91,6.29c-1.17,2.77-1.43,5.59,2.36,6.82l1.92.74a26.46,26.46,0,0,1,5.55,8.13c-3.16-2.18-5.67-5.41-9.8-6-1.24,1.13-2.76,1.93-3.82,3.28-2.24.81-5-.35-6.86,1.89-3.78,1.4-6.77-.44-8.59-3.2-2.13-3.26.72-5.74,3-7.52a33.16,33.16,0,0,0,10.27-13.85,29.66,29.66,0,0,0,.36-13.21c-.95-5.56-4.58-9.31-10.15-10.94-3.61-.23-7.24.16-10.84-.29-1.54-.39-3.1-.82-4.25.84-3,2.25-6.27,3.63-10.13,3-.92-1.55-2.84-.38-4-1.45,1.48-1.35,4.64.83,5-2.49C399.2,140.44,397.5,140.81,396.94,140Z" transform="translate(0 0)"/><path class="cls-8" d="M247,120c-4.69-1.33-3.52,3.22-5.06,5-2.56.05-3-2.16-3.94-3.78-1.69-3-2.81-6.26-4.72-9.14-2.84-6.71-6.77-12.89-9.42-19.7-.11-2.54-2.3-4.7-1.4-7.44a.69.69,0,0,0,0-.56c0,1.06-.26,1.91-1.5,2.07-3.64-2-5.63-5.3-6.74-9.21.62-2.48,2.19-3,4.34-2a7.15,7.15,0,0,0,4.59,1c3.77,0,3.17,4.46,5.74,5.69.49.87,1.65,1.42,1.22,2.7C232,87,232.84,90,235.25,91.83h0c2.18,4.69,3.76,9.66,6.83,13.91a7.78,7.78,0,0,1,.86,2.48,5.69,5.69,0,0,0,1.25,3.32,4.91,4.91,0,0,1,.58,1,3.48,3.48,0,0,0,1.81,2.89A4.43,4.43,0,0,1,247,120Z" transform="translate(0 0)"/><path class="cls-2" d="M223,77.05c-1.66,1.73-3,1-4.43-.43s-2.8-1.55-3.67.65c-1.75.27-2.77-.9-3.71-2a161.18,161.18,0,0,0-24.6-24.32c-.88-.7-1.91-1.38-1.83-2.76a5.25,5.25,0,0,1,4.11,1.15c.79.63,1.86,1.82,2.92.59a3.69,3.69,0,0,0,.72-2.74c-.31-1.55-1.83-.95-2.88-1.06s-2,0-3-1.27c1.7-.87,3.8-1.4,4.33-3.55a20.07,20.07,0,0,1,6.1,4.61c3,2.73,5.48,6,9.17,7.95l-.24.22.23-.23a8.45,8.45,0,0,0,4.11,4.12l1.75,1.88c.87,2.55,3.52,3.72,4.7,6,.95,2.32,3.25,3.61,4.42,5.69C222.15,73.2,224.57,74.54,223,77.05Z" transform="translate(0 0)"/><path class="cls-29" d="M323,180c-6.58,3.55-13.15,7.12-19.74,10.64-1.5.79-2.88.07-4.21-.62,10.67-4.65,20.58-10.74,30.86-16.13A1.43,1.43,0,0,1,330,176l-2,1A15.57,15.57,0,0,1,323,180Z" transform="translate(0 0)"/><path class="cls-9" d="M330,176l-.09-2.12c4.31-3.53,8.7-6.92,14-8.91,3.05,0,4.69-3.89,8.09-2.95,0,1,.12,2.55-.79,2.64-4.36.45-7.46,3.45-10.85,5.54-3.21,2-7.22,3.07-9.41,6.57a4,4,0,0,1-.27.31Z" transform="translate(0 0)"/><path class="cls-16" d="M469.6,204c-4.65-2-9.36-3.28-14.23-.75-2.06,1.07-3.14-.21-4.05-1.62-1.73-2.68-2.94-5.56-2.31-8.88,2.05,6.4,6.87,8,12.88,7.22C465.47,199.55,467.83,201.16,469.6,204Z" transform="translate(0 0)"/><path class="cls-30" d="M247,120l-1-4c-2-.65-1.13-2.76-2.05-4h0c-1-.79-1.23-2.08-2-3l-.21-3a.8.8,0,0,1,.26-1.16q7.29,13.69,14.56,27.4a2.67,2.67,0,0,1,.25,2.8c-4.18-.8-3.12-5.37-5.4-7.58A17.17,17.17,0,0,1,250,125h0c-1.4-1.43-1.78-3.47-3-5Z" transform="translate(0 0)"/><path class="cls-31" d="M158.24,28l-1.31-1.9c-1.58-1.33-2.18-3.22-2.85-5.06h0c-.75-1.62-3.52-2.36-2.11-4.9a37.65,37.65,0,0,0,17.07,13l-5,0C162.33,27.6,159.88,30,158.24,28Z" transform="translate(0 0)"/><path class="cls-32" d="M393,139.14c0,.62,0,1.25,0,1.88-5.6.5-9.81,4.49-15,6-.57,1.51-1.86,1.51-3.15,1.51a1.36,1.36,0,0,1-1.24-.7,102.09,102.09,0,0,1,18.24-8.94A.76.76,0,0,1,393,139.14Z" transform="translate(0 0)"/><path class="cls-33" d="M223,77.05c-1-4.53-5.34-6.88-7-11,1.14-.73,1.55.67,2.38.82,4.13,4.62,8.51,9.07,10.52,15.15C225.39,82.21,226.23,77.24,223,77.05Z" transform="translate(0 0)"/><path class="cls-34" d="M261,145l-3.91-8.23c1.65-.12,2.58.65,3.39,2.12,2.42,4.4,5,8.69,7.57,13a1.5,1.5,0,0,1,0,2.07c-1.95-.61-2.48-2.29-3-4C263.19,148.73,262.47,146.57,261,145Z" transform="translate(0 0)"/><path class="cls-32" d="M370,152l-15,8a1.09,1.09,0,0,1,0-1.74l18-10.15C374.35,151.24,371.21,150.91,370,152Z" transform="translate(0 0)"/><path class="cls-35" d="M285,174c-5.08-1-6.53-6.12-10-9-.52-1.47-2.88-2.06-2-4.2a1.08,1.08,0,0,1,1.29.08Z" transform="translate(0 0)"/><path class="cls-36" d="M242.08,104.86c-.08.38-.17.77-.26,1.16-4.15-3.82-5.5-8.94-6.58-14.18A67.36,67.36,0,0,1,242.08,104.86Z" transform="translate(0 0)"/><path class="cls-37" d="M441,184c-5.12-.35-4.61-4.24-3.61-7.12.84-2.41,2-5.2,4.43-6.82.11,2.52-1.05,4.69-1.9,6.95C437.29,179.76,441.31,181.53,441,184Z" transform="translate(0 0)"/><path class="cls-38" d="M152,16.14c-.37,2.09,2.16,2.94,2.11,4.9l-1.07.05c-2.8-4.73-6.48-8.77-10-12.94A32.16,32.16,0,0,1,152,16.14Z" transform="translate(0 0)"/><path class="cls-39" d="M474.82,242.07c-6-4.82-6.08-5.68-1.05-11.23C473.43,234.65,472.92,238.47,474.82,242.07Z" transform="translate(0 0)"/><path class="cls-8" d="M250,125c3.22,2.72,3.87,7.19,6.88,10,0,.32,0,.65,0,1-2.84.27-4.55-.23-4.53-3.87C252.36,129.78,250.84,127.4,250,125Z" transform="translate(0 0)"/><path class="cls-40" d="M355,158.25c0,.58,0,1.16,0,1.75-1.53-.12-2,1.39-3,2-2.94.3-4.58,4.21-8.09,2.95A59.06,59.06,0,0,1,355,158.25Z" transform="translate(0 0)"/><path class="cls-16" d="M474.82,218c-1.81-4.39-2.37-9.22-4.76-13.39C474.65,208,475.72,212.64,474.82,218Z" transform="translate(0 0)"/><path class="cls-41" d="M206.26,53.83a14.65,14.65,0,0,1-9.17-7.95A34.9,34.9,0,0,1,206.26,53.83Z" transform="translate(0 0)"/><path class="cls-42" d="M441.66,153.07c-3.82-2.5-.76-6.92-2.78-9.92,3.64,2,3.29,5.35,3.11,8.68C442.45,152.39,442.34,152.81,441.66,153.07Z" transform="translate(0 0)"/><path class="cls-37" d="M441.66,153.07l.33-1.24a28.09,28.09,0,0,1,0,16.22Z" transform="translate(0 0)"/><path class="cls-33" d="M235.25,91.83c-3.43-1.11-4.78-3.73-5.13-7.07C233.53,85.88,233.79,89.29,235.25,91.83Z" transform="translate(0 0)"/><path class="cls-43" d="M274.26,160.89,273,161c-1.57.14-2.27-1-3-2.07,0-.66,1.2-1.31,0-2-1.51-.37-1.23-2-2.07-2.87L268,154c0-.69,0-1.38,0-2.07A42,42,0,0,1,274.26,160.89Z" transform="translate(0 0)"/><path class="cls-44" d="M441,184c-.86-2.25-6-3.84-1.08-7-1,3.27,2.07,4.65,3.27,6.9Z" transform="translate(0 0)"/><path class="cls-45" d="M218.38,66.91,216,66.09c-.9-2.33-4.13-3.22-3.89-6.27A26.23,26.23,0,0,1,218.38,66.91Z" transform="translate(0 0)"/><path class="cls-46" d="M393,139.14l-1.19-.25,6.09-2.88q.81-.75,1.23.27A18.68,18.68,0,0,1,393,139.14Z" transform="translate(0 0)"/><path class="cls-9" d="M370,152c1-1.34,3.17-1.72,3-3.92a.4.4,0,0,1,.6-.27l1.4.26c.35.21.46.41.35.62s-.24.31-.35.31C373.9,151.06,372.36,152.27,370,152Z" transform="translate(0 0)"/><path class="cls-41" d="M210.36,57.94a4.19,4.19,0,0,1-4.11-4.12A10.84,10.84,0,0,1,210.36,57.94Z" transform="translate(0 0)"/><path class="cls-47" d="M399.11,136.28l-1.23-.27a8.56,8.56,0,0,1,5.09-1.82c.45,1.06-.49,1.31-1.06,1.77Z" transform="translate(0 0)"/><path class="cls-46" d="M401.91,136c.35-.59.7-1.18,1.06-1.77h3A5.58,5.58,0,0,1,401.91,136Z" transform="translate(0 0)"/><path class="cls-48" d="M315,349.9c12.37,1.87,24.83.48,37.23,1.15-15.44,2.41-30.83.82-46.23-.52-.49,0-1-.24-1.46-.32-7-1.19-7.65-.46-5.44,6.44a.94.94,0,0,1-.25,1.47l-1.92-2.19a13.36,13.36,0,0,0-1.94-4h0c-.45-4.06.2-4.7,4-4.05l4.94.07C307.53,349.2,311.6,347.59,315,349.9Z" transform="translate(0 0)"/><path class="cls-49" d="M298.83,358.12c.08-.49.16-1,.25-1.47,2.1,4.65,4.37,9.23,6.26,14,1.57,3.93,3.6,5.17,8,3.76,7.07-2.29,14.4-3.77,21.61-5.58a.66.66,0,0,1,.26.73c-.08.24-.17.36-.26.36-3.14,0-5.53,3-8.88,2.16-1.12,1.16-2.82,1-4.08,1.87-1.6.2-3.35-.3-4.77.82-3.49,2.76-7.27,2.55-11.19,1.17-2.74-1.93-1.89-5.69-4.06-7.91C301.15,364.62,299,361.68,298.83,358.12Z" transform="translate(0 0)"/><path class="cls-50" d="M334.92,369.88v-1.09L363,359.91c-3.16,3.48-7.56,5-11.82,5.64C345.53,366.43,340.87,370.58,334.92,369.88Z" transform="translate(0 0)"/><path class="cls-51" d="M464.05,276.05c-.49-2.36,0-4.74-1.48-7.12-2-3.32,2.09-2.73,3.28-4.06C467,268.88,465,272.39,464.05,276.05Z" transform="translate(0 0)"/><path class="cls-52" d="M435,320.06c1.87-3.93,5.89-5.52,8.92-8.17A.77.77,0,0,1,445,312C442.62,315.88,438.5,317.6,435,320.06Z" transform="translate(0 0)"/><path class="cls-53" d="M372.87,389.76c3.18-1.1,4.62-3.23,3.92-6.62a3.92,3.92,0,0,1,1.3,5.15C377,390.47,374.94,390.43,372.87,389.76Z" transform="translate(0 0)"/><path class="cls-54" d="M445,312l-1.08-.07c-.82-1.69-.25-3.13.74-4.62,1.11.66,0,2.91,2.06,2.67C446.62,311.05,445.83,311.53,445,312Z" transform="translate(0 0)"/><path class="cls-54" d="M452.92,302.08c0-2.05-.41-4.38,2.87-4.13A5,5,0,0,1,452.92,302.08Z" transform="translate(0 0)"/><path class="cls-55" d="M77.11,62.12c-2.72,1.91-5.79.83-8.68.9-7.44.18-14.9.09-22.35.11-2.33,2.07-4.66,1.2-7,0l-4,0c-1.7,1.11-2.72-.44-4-1l-1,0a40,40,0,0,1-10-9l-1-.88c3.12-1,5,1.07,6.8,3,4.66,5.09,10.28,7.24,17.21,7,9.27-.33,18.56-.14,27.84-.17C73,61.6,75.08,60.53,77.11,62.12Z" transform="translate(0 0)"/><path class="cls-56" d="M77.11,62.12,71,62C80,57.8,82,48.73,85.2,40.64c1.33-3.33.38-7.27,1.78-10.73.72,7.8,2.21,15.59-4,22.33-2.1,2.28-2.32,6-3.88,8.83A2.25,2.25,0,0,1,77.11,62.12Z" transform="translate(0 0)"/><path class="cls-4" d="M79.11,61.07A26.33,26.33,0,0,1,84,49.41c4.6-6,2.92-12.87,3-19.5,0-1.74-.23-3.54,1-5.05-.25,7.59.39,15.16-.6,22.8-.54,4.09-3.58,5.88-5.21,8.84-.52,1-1.27,1.81-.83,2.65C83.5,63.31,79.36,59.89,79.11,61.07Z" transform="translate(0 0)"/><path class="cls-57" d="M17.8,51.12l-5.7,0c-2.07,1.56-3.79,3.51-5.92,5,0,.32-.09.63-.11,1L4,58C6.21,51.16,9.56,48,17.8,51.12Z" transform="translate(0 0)"/><path class="cls-58" d="M97.06,12.09c-2.43.39-3.26,2.76-5,4-.32.48-.62.47-.92,0,.44-3.51,2.72-5.16,5.91-5.9Z" transform="translate(0 0)"/><path class="cls-59" d="M91.15,16.09h.92c-.88,2.1-.34,5-3.38,5.86A14.38,14.38,0,0,1,91.15,16.09Z" transform="translate(0 0)"/><path class="cls-60" d="M98,20.07a2.11,2.11,0,0,1,1-2,1.72,1.72,0,0,1,2-.25,2.51,2.51,0,0,1,.6,1.31,3.79,3.79,0,0,1-.3,1.41c-2.57,3.1-2.6,7-3.5,10.53,1.9.73,2.19-.91,3.12-1.42a8.93,8.93,0,0,1,3.43-1c3.58-.63,7.13-1.35,10.31-3.25a8.74,8.74,0,0,1,1.47-.49c6-2.63,12.35-2.24,18.66-2.17,2.25-.68,6.13,1.38,5.9-3.5a1.48,1.48,0,0,1,.43-1.2,3.1,3.1,0,0,1,2.85,2c1,1.34.68,2.67,0,4a20.88,20.88,0,0,1-9.3,1c-11.27-1.06-21.11,3.62-31.14,7.59-.74.3-1.4,1.31-2,1.25-2.23-.2-3.82,3.29-5.8,1.54-2.14-1.89-1.69-4.78-.71-7.37C97.12,25.81,95.46,22.15,98,20.07Z" transform="translate(0 0)"/><path class="cls-61" d="M110,10.09c9.8-4,18.7-1.33,27.32,3.63a3,3,0,0,1,1.81,2.17,1.67,1.67,0,0,1-1.26.74c-3.89-.84-7.16-3.27-11-4.27-7-1.83-13.68-1.57-19.73,2.93a7.74,7.74,0,0,1-1.86,1.24,2.55,2.55,0,0,1-2.14-.15c-.74-1.12-.11-1.78.79-2.34l3.12-2.93C107.84,10.12,109.28,11.08,110,10.09Z" transform="translate(0 0)"/><path class="cls-62" d="M104,14l-.91,2a2.27,2.27,0,0,1-2.11,2H99.05c.1-1.39,3.09-2,1-4C101.34,12.3,102.66,13.53,104,14Z" transform="translate(0 0)"/><path class="cls-38" d="M144,24.08l0-4c.94-.36,2.18-1.27,2.77-1,1,.57.79,1.91.21,3C145.49,21.92,145.08,23.48,144,24.08Z" transform="translate(0 0)"/><path class="cls-62" d="M110,10.09c-.73,1.08-1.89.92-3,1C107.24,8.35,109.29,11.12,110,10.09Z" transform="translate(0 0)"/><path class="cls-63" d="M138,16.14l1.19-.25,2,2.16a2.37,2.37,0,0,0,0,.92l-.68.36C138.8,18.94,137.65,18.13,138,16.14Z" transform="translate(0 0)"/><path class="cls-64" d="M451.17,289a3,3,0,0,0-.08,1c.39,2.16-2,3.05-2.23,4.93-.42,1.78-2.13,2.61-3,4.05-2.06,2-3,5-6,6.16a.84.84,0,0,1-1.17-.19c.48-3.84,4.4-5.72,5.3-9.32a19.14,19.14,0,0,1,2.57-4c2.61-2.31,3.18-5.63,4.26-8.69a11.57,11.57,0,0,1,.32-1.29,11.45,11.45,0,0,0-.07-7.09c-.72-1.81-2.7-2.26-3.89-3.57-3.9-6.08-2.6-10.34,4.11-13.07a30.6,30.6,0,0,0,7.73-4.14c1.13-.77,2.3-1.46,3.42-2.23a7.77,7.77,0,0,0,.91-.8c-1.19-3.62-4.29-2.28-6.62-2.38-7.48-.33-8.79-1.86-7.58-9.56a2.52,2.52,0,0,1,2.56-1.46,2.21,2.21,0,0,1,1.37.79c-2.43,1.46-2.61,3.77-1.83,6,.86,2.46,3.25,1.74,5.14,1.81,2.14.08,4.3-.06,6.43.09a5.51,5.51,0,0,1,4.76,3.8c.82,2-1.43,2.61-2.38,3.84-1.44,1.9-4.25,2-5.33,4.25-1.52,1-3.57.73-5,2.06-2.1-.33-3.49,1-5,2.1a5.06,5.06,0,0,0-1,5.95c.13,2,1.65,1.87,3,1.93,1.29.59,1.54,1.86,2,3h0c1.67,3,1.17,6,0,9l0,2C454.26,286.32,452.6,287.59,451.17,289Z" transform="translate(0 0)"/><path class="cls-65" d="M430.89,312.92C419,321.6,405.84,328,392.35,333.8a7.16,7.16,0,0,1-2.46.09,1.36,1.36,0,0,1-.11-1.35c2.62-3.07,6.45-4.09,10-5.37,8-3,15.1-7.52,22.12-12.25a6.71,6.71,0,0,1,1.21-.73c3.6-.19,5.25-4.62,9.12-4.23C432.72,311.37,432,312.24,430.89,312.92Z" transform="translate(0 0)"/><path class="cls-66" d="M322.93,342c-4.61-.63-9.21-1.36-13.88-1.15a1,1,0,0,1,.35-1.46c8.1-1.81,16.16-.72,24.18.53,6.14,1,12.19,1.29,18.16-.85,6.21.31,12.11-2.38,18.34-2a2.09,2.09,0,0,1,1.15,1.2c-5,2.87-10.63,2.61-16.15,2.82-1.2,1-2.82,1.05-4.16,1.74l-17.95.06C329.72,341.57,326.2,343.21,322.93,342Z" transform="translate(0 0)"/><path class="cls-15" d="M247,321.94c-.33-.67,2.56-2.11.07-1.77-3.14.43-3.19-1.54-4.07-3.17a2.42,2.42,0,0,1,2-.81c8.82,3.69,17.17,8.37,25.73,12.61a3.09,3.09,0,0,1,1.65,1.75,1.5,1.5,0,0,1-.41,1.38c-3.53-1.31-7.09-3.71-10.27-4.35C256.33,326.49,252.4,322.37,247,321.94Z" transform="translate(0 0)"/><path class="cls-67" d="M272,331.93c0-.39,0-.77,0-1.15,3.14-1.91,5.86,1.66,8.93.68a4,4,0,0,1,2,.88c3.65,2.08,8.15,1.52,11.76,3.74,2.56.9,5.24.27,7.84.62s4.88.9,6.42,3.18a4.3,4.3,0,0,0,.05.95,101.65,101.65,0,0,1-20.28-3.66A25.69,25.69,0,0,0,281,335.9c-1.15-1.06-2.95-.73-4.06-1.88C274.92,334.26,273.56,332.87,272,331.93Z" transform="translate(0 0)"/><path class="cls-66" d="M389.92,332.86l0,1c-6.16,1.74-12.26,3.67-18.66,4.4-.15-.2-.31-.39-.47-.58a1.32,1.32,0,0,1,.59-1.42c4.52-3,10.13-2.23,14.94-4.3A3.28,3.28,0,0,1,389.92,332.86Z" transform="translate(0 0)"/><path class="cls-68" d="M277,341.91c1.47-2.37-1.8-2.12-2.08-4a10,10,0,0,1,2.33,0c1.94.49,5.55-1.49,5.4,2.09-.13,3.32-3.67,1.32-5.64,1.88Z" transform="translate(0 0)"/><path class="cls-54" d="M430.89,312.92l1-3c.95-3.47,3.69-4.54,6.82-5.09l1.16.25C438.13,309.13,434.14,310.6,430.89,312.92Z" transform="translate(0 0)"/><path class="cls-69" d="M315,349.9c-3.7-.5-7.48-.57-11-2h7.75C313.21,347.93,314.72,347.87,315,349.9Z" transform="translate(0 0)"/><path class="cls-69" d="M299,347.87c-2.85-.15-4.3,1.11-4,4.05-2.28-3.62-.21-5.18,3-5.92C299.54,345.64,299.38,346.83,299,347.87Z" transform="translate(0 0)"/><path class="cls-69" d="M301.94,368c2.74,1.93,2.36,5.45,4.06,7.91C302.43,374.4,303.05,370.75,301.94,368Z" transform="translate(0 0)"/><path class="cls-67" d="M322.93,342c3.35.37,6.84-1,10,.93C329.63,342.57,326.13,343.91,322.93,342Z" transform="translate(0 0)"/><path class="cls-54" d="M445.86,298.93c.21-1.93,1.47-3.09,3-4.05C451.1,298.63,447.12,297.78,445.86,298.93Z" transform="translate(0 0)"/><path class="cls-15" d="M277,334c1.74-.2,3.24.1,4.06,1.88C279.46,335.75,277.4,336.63,277,334Z" transform="translate(0 0)"/><path class="cls-67" d="M350.92,342.85a5.18,5.18,0,0,1,4.16-1.74C354.44,343.46,352.54,342.83,350.92,342.85Z" transform="translate(0 0)"/><path class="cls-69" d="M295,351.93c1.82.77,2.08,2.29,1.94,4C296.12,354.67,293.89,354.1,295,351.93Z" transform="translate(0 0)"/><path class="cls-50" d="M322,373.91A5,5,0,0,1,326,372C325.53,374.52,323.54,373.76,322,373.91Z" transform="translate(0 0)"/><path class="cls-70" d="M172,148.11,169,146c-.95-.75-2.51-.52-3-1.93l-.94-.08a.9.9,0,0,1,.12-1.34c2.2-1.26,4-.21,5.87.9,3.06,1.85,5.82,4.13,8.8,6.09,10.49,7.94,14.55,19.44,17.2,31.6,2.53,11.63,3.83,23.52,7.06,35a11.82,11.82,0,0,1,.33,3c2.58,14.35,4.71,28.76,8.2,43,1,4,3.63,8.25,1.37,12.76-4.06-4.09-3.85-9.85-4.7-14.75-1.88-10.84-4.28-21.61-5.94-32.51-1.37-9-4.63-18.14-5.89-27.24s-4.31-17.95-5.74-27.09C190.74,167,188,160.8,182,157c-1.7-2.68-3.47-5.29-6.87-6A14.42,14.42,0,0,0,172,148.11Z" transform="translate(0 0)"/><path class="cls-71" d="M207,287.89c1.13-1.26.81-2.52,0-3.77,0-.72.05-1.44.07-2.16.13.1.33.17.39.3,1.37,2.88,5.26,6.37,2.82,8.68s-7.52,1.91-11.14-.05a10.17,10.17,0,0,0-5.24-.91q-14.41-.08-28.84,0c-2.24,0-4.66-.61-6.56,1.39a1.93,1.93,0,0,1-1.81.38c-3.81-3-8.31-1.24-12.42-2-.43-.08-.78-.56-1.17-.85,12.29-.3,24.58.16,36.9-.54,7.18-.41,14.57.6,21.88.55C203.57,288.91,205.54,289.62,207,287.89Z" transform="translate(0 0)"/><path class="cls-72" d="M214,275c-.38-4.41-1.92-8.58-2.67-12.94-1.24-7.13-3-14.2-4.5-21.29S205.21,226.07,203,219c3.94.69,4,4,4.26,6.83,1,11.4,4.12,22.39,6.21,33.58a123.68,123.68,0,0,0,10.63,31.88,4,4,0,0,1,.3,3.37,1.06,1.06,0,0,1-1.43.41A85.8,85.8,0,0,1,214,275Z" transform="translate(0 0)"/><path class="cls-73" d="M159,296.93c-6.81,2.79-13.33-.24-20-1,2-4,6.86-2.69,8-1.64,4,3.51,8,1.16,12,1.65C159,296.29,159,296.61,159,296.93Z" transform="translate(0 0)"/><path class="cls-74" d="M197.47,231.31c-.51-2.51-1-4.59-1.32-6.69-.2-1.25.09-2.37,1.65-2.5s2,.67,2.19,2.06C200.24,226.8,199.33,229,197.47,231.31Z" transform="translate(0 0)"/><path class="cls-75" d="M245,316.93l-2,.07c-4.23-2.72-8.21-5.72-11-10a1.82,1.82,0,0,1,1.88-.46,4.54,4.54,0,0,1,1.16.73c2.18,2.06,4.73,3.64,7.06,5.51C243.43,313.8,245.33,314.65,245,316.93Z" transform="translate(0 0)"/><path class="cls-66" d="M222.94,295.08l1.07-.14c3.36,2.3,5,6,7.49,9a2,2,0,0,1-.5,2C226.91,303.37,224,299.94,222.94,295.08Z" transform="translate(0 0)"/><path class="cls-76" d="M178,164.08q-3-3-6.1-6c3.41-.82,3.68,3.25,6.13,3.93Z" transform="translate(0 0)"/><path class="cls-77" d="M231,306l-.1-1.94c2.36-.32,3.44.62,3,3.05L232,307Z" transform="translate(0 0)"/><path class="cls-4" d="M135,130a1.67,1.67,0,0,0-.5,0c-4.91,2-8.47-2-12.28-3.5-4.69-1.81-9.31-4.36-14-6.55-3.51-1.65-4.33-4.38-1.69-7.29,6.85-7.55,7.72-16.23,4.57-25.48-1.74-5.12-4-10.06-6.08-15.09a2.14,2.14,0,0,1,2.22-.48c3.78,2.18,4.82,6.1,6.2,9.8,4.18,11.2,3.78,22-2.82,32.26-1.4,2.18-1.21,3.34,1.46,4.4,6.89,2.75,13.75,5.61,20.59,8.49,1.08.45,2.21.76,2.71,2A1.75,1.75,0,0,1,135,130Z" transform="translate(0 0)"/><path class="cls-78" d="M75.08,68.08l3-.06a15.55,15.55,0,0,1,11,0l5,2.06c.9.81,2.23,1,3,2l2,0c0,.33,0,.74.17,1,7.56,9.9,9.28,21,6.81,33a.57.57,0,0,1-1,0c-.9,2.65-2.85,4.42-5,6a1.7,1.7,0,0,1-2.06.15c-.1-.23-.2-.45-.31-.68a3,3,0,0,1,.39-1.41c5.2-4.23,6.46-9.85,5.68-16.19.55-8.16-2.82-14.49-9.1-19.46-5.2-3.59-10.68-5.33-16.91-2.8-2.21.9-4.59.73-6.91.73-10,0-20-.08-30,0a27.26,27.26,0,0,1-12.15-2.19,3.17,3.17,0,0,1-1.95-1.63A1.86,1.86,0,0,1,27.13,67l.95,0c6.67,2.58,13.59,3.23,20.7,3,7.44-.26,14.89-.12,22.33-.15C72.66,69.81,73.68,68.54,75.08,68.08Z" transform="translate(0 0)"/><path class="cls-27" d="M76.07,118.05c-7,.11-13.75,1.94-20.54,3.52-5.18,1.21-10.58.77-15.82.26-3.09-.3-3.36-5.52-.65-8.81a.93.93,0,0,1,1.34.14c1.14,6.81,1.68,7.17,9,6.52,2.52-.22,4.77-1.44,7.24-1.83,5.86.19,11.29-3.4,17.29-2C75,116.22,76.23,116.44,76.07,118.05Z" transform="translate(0 0)"/><path class="cls-79" d="M106.94,72.09l-1.89,0-4-3.15c0-.31,0-.61-.08-.92-1.2-.88-2.93-.66-4-1.92-2.65-2.14-5.94-2.87-9-4.08-1.14-2.24-.48-4.19,1-6l1-1c1.5,2.13,0,6.74,5,6a24,24,0,0,1,7.34,4.26C104,67.54,107.47,68.46,106.94,72.09Z" transform="translate(0 0)"/><path class="cls-80" d="M158,140.07c-4.79-3.8-10.89-5-16.08-8a1,1,0,0,1,.15-1.34c2.65-.85,4.7,1.42,7.2,1.36a120.45,120.45,0,0,1,12.21,6.05c1.44.8,3.62,1.28,2.74,3.83A6.57,6.57,0,0,1,158,140.07Z" transform="translate(0 0)"/><path class="cls-78" d="M76.07,118.05a2.72,2.72,0,0,0-2.26-1.16,2,2,0,0,1,.77-1.43c7.34-4,15.56-2.37,23.33-3.57l.26.31c.32,1-.45,1.4-1.12,1.82q-.49,0-1,.09c-1.67,2.37-4.17,1.1-6.3,1.41-1.89.27-3.88-.52-5.71.51C81,115.09,79,118.47,76.07,118.05Z" transform="translate(0 0)"/><path class="cls-22" d="M51.58,125.47c.23-.65.25-.89.33-.91,2.36-.59,4.73-1.3,6.88.55.2.18.19.61.28.92C56.65,125.82,54.15,126.52,51.58,125.47Z" transform="translate(0 0)"/><path class="cls-81" d="M158,140.07l6.16,1.87a1.1,1.1,0,0,1,1.06.7c-.06.46-.13.92-.19,1.37C161.27,145.25,160,142,158,140.07Z" transform="translate(0 0)"/><path class="cls-13" d="M84.05,116c3.73-2.35,8.27.34,12-1.92-.65,2.92-3,1.77-4.75,1.89C88.9,116.16,86.47,116,84.05,116Z" transform="translate(0 0)"/><path class="cls-82" d="M142,131.05l-.09,1c-2.49-.1-5.1.19-6.94-2.06,0-.39.06-.78.1-1.16C138.11,127.38,140.17,128.9,142,131.05Z" transform="translate(0 0)"/><path class="cls-83" d="M75.07,122c-.65,3.2-3.24,1.56-5,2,.14-.9-2-.64-1-2a5,5,0,0,1,6,0Z" transform="translate(0 0)"/><path class="cls-22" d="M75.07,122h-6Q72.07,117.39,75.07,122Z" transform="translate(0 0)"/><path class="cls-28" d="M40.18,113.08,39.06,113c0-.66,0-1.32,0-2v-1a5.8,5.8,0,0,1,4.35-.8C43.74,111.7,42.46,112.82,40.18,113.08Z" transform="translate(0 0)"/><path class="cls-76" d="M172,148.11c1.93,0,2.85,1.07,3.12,2.87C174,150.09,170.54,151.8,172,148.11Z" transform="translate(0 0)"/><path class="cls-84" d="M105.06,106.07l1,0a2.28,2.28,0,0,1,.73,3c-.09.23-.77.22-1.18.31Z" transform="translate(0 0)"/><path class="cls-81" d="M152,144c.15-1,.39-2,1.71-1.77.31.05.83.71.76.89-.46,1.18-1.58.75-2.47.88Z" transform="translate(0 0)"/><path class="cls-22" d="M51.09,127c-1.74,1.59-3.78.75-5.71.73C47.13,126.32,49.19,127.34,51.09,127Z" transform="translate(0 0)"/><path class="cls-12" d="M167,154.09a5.84,5.84,0,0,1-3.94-2.08C164.63,152.21,166.77,151.35,167,154.09Z" transform="translate(0 0)"/><path class="cls-13" d="M97.05,114l1.12-1.83,1.88-.1C98.8,112.34,100.26,116.82,97.05,114Z" transform="translate(0 0)"/><path class="cls-76" d="M171.06,158l-2-2a1.19,1.19,0,0,1,2-.24C171.9,156.45,171.31,157.21,171.06,158Z" transform="translate(0 0)"/><path class="cls-76" d="M166,144.09c1,.64,2,1.28,3,1.93C168,145.39,165.23,147.56,166,144.09Z" transform="translate(0 0)"/><path class="cls-85" d="M47.08,89.05h-13c-1.94,1.09-3.49.17-5-1C18.25,89.08,10.62,80,8.36,71.26c-1.22-4.68.21-8.81,3.68-12.2a2.71,2.71,0,0,1,1,2c-2.6,5.78-1.93,11.24,1.62,16.41,2.37,3.58,6,5.38,9.78,7,16.41,2,32.65.27,48.88-2,6.43-.91,12,2.45,13,7.55-10.38-6.52-21.35-3.21-32.2-1.89C51.86,89.32,49.26,87.72,47.08,89.05Z" transform="translate(0 0)"/><path class="cls-86" d="M86.26,90c-4.12-6-9.73-7.12-18.93-5.61-14.67,2.41-29.49,3.8-44.31.72,2.68-2.36,6-1,9-1.51,12-.17,24-.15,35.86-2.73,2.1-.46,4.28-.16,6.42-.15,2.33,0,4.51.73,6.74,1.25,5.81,2.31,10,5.77,9.24,12.84a4.44,4.44,0,0,1-1.89,3.45,1.58,1.58,0,0,1-1.5-.16c-.66-1.93.73-3.38,1.22-5Z" transform="translate(0 0)"/><path class="cls-87" d="M40.18,113.08l3.25-3.84a1.41,1.41,0,0,0,.76-.07,3.75,3.75,0,0,1,4.36-.65,1.76,1.76,0,0,1,.76,1.22c-1,1.82-3.39,1.5-4.7,2.88-1.55,1.36-3.09,2.72-1.3,4.94,2.42,1.15,4.78.07,7.14-.21,1.92-.22,3.84-.84,5.64.43a1,1,0,0,1,0,1.29,23.07,23.07,0,0,1-9.06,2C39.36,121.21,38.69,120.49,40.18,113.08Z" transform="translate(0 0)"/><path class="cls-88" d="M49,109l-4.84.17c.29-.38.59-.75.89-1.13,1.19-1,2.86-1,4.08-2,8.57-.39,17.24.79,25.68-2.06,2-.69,3.91-1.77,6-2.24l.46.63c-.31,2.21-2.11,2.83-3.79,3.58-3.82,1-7.48,2.86-11.61,2.4-5.36.21-10.75-.57-16.07.6Z" transform="translate(0 0)"/><path class="cls-89" d="M12.13,61.1l-.09-2c1.43-1.52,3.3-.77,5-1,.95.76,2.3.94,3,2.08a2,2,0,0,0,1.06,1.9A42.16,42.16,0,0,1,25,65.18L27.13,67c0,.39-.07.78-.11,1.17-4.38.78-6.25-3.14-9.25-4.93a9,9,0,0,0-3.29-1.79A4.22,4.22,0,0,1,12.13,61.1Z" transform="translate(0 0)"/><path class="cls-4" d="M20.09,53.1a33.91,33.91,0,0,1,10,9C24.08,61.12,21,58.4,20.09,53.1Z" transform="translate(0 0)"/><path class="cls-4" d="M6.18,56.07c1.51-2.21,3-4.48,5.92-5C12.36,55.4,8.37,54.66,6.18,56.07Z" transform="translate(0 0)"/><path class="cls-88" d="M88.09,93C88.81,95,87.2,96.3,86.88,98c.29,1.79-1,2.76-2,3.9a4,4,0,0,1-1.07.75,2.62,2.62,0,0,1-2.51-.27l-.45-.56C84.49,99.88,85.67,96,88.09,93Z" transform="translate(0 0)"/><path class="cls-90" d="M79,95.44c2.37-1.09,3-3.42,5.42-3.18C84.11,95.13,83.13,96.81,79,95.44Z" transform="translate(0 0)"/><path class="cls-4" d="M47.08,89.05c2.11-1.87,4.66-.61,7-1C52,90,49.4,88.67,47.08,89.05Z" transform="translate(0 0)"/><path class="cls-4" d="M29.09,88.09l5,1C32.09,90.42,30.22,91.15,29.09,88.09Z" transform="translate(0 0)"/><path class="cls-28" d="M49.16,106.09a3.79,3.79,0,0,1-4.08,2C45.87,106.2,47.4,105.92,49.16,106.09Z" transform="translate(0 0)"/><path class="cls-91" d="M25,65.18a5.67,5.67,0,0,1-3.93-3.1A4.29,4.29,0,0,1,25,65.18Z" transform="translate(0 0)"/><path class="cls-4" d="M31.09,62.08l4,1c-.73,1.15-1.9.94-3,1Z" transform="translate(0 0)"/><path class="cls-85" d="M20,60.18a3.81,3.81,0,0,1-3-2.08C18.55,58,20.05,58,20,60.18Z" transform="translate(0 0)"/><path class="cls-92" d="M434.09,166.94a33,33,0,0,1-11.34,15.13c-1.52,1.15-4.06,3.31-2.19,5.28,1.69,1.78,3.9,4.71,7.38,2.72,2.86-1.58,5.5-1,8,.84,7.26,3.5,8.27,8.42,2.8,13.86-3.15,3.12-6.43,6.07-10.95,7.11a2.05,2.05,0,0,1-.37-1.36c1.39-3.17,5.21-3.24,7.2-5.64a16.59,16.59,0,0,0,2.73-2.89c2.26-3.5,1-6.9-3-8.18-2.3-.73-4.59-.17-6.9,0-4,.23-7.26-1.26-9-5-1.61-3.46-.25-6.43,2.35-9a70.83,70.83,0,0,1,5.79-5.44,7.61,7.61,0,0,0,3.25-5.54,10.11,10.11,0,0,1,1.45-3.91,3.43,3.43,0,0,1,1.69-1.31,1.58,1.58,0,0,1,1.28.48A4.15,4.15,0,0,1,434.09,166.94Z" transform="translate(0 0)"/><path class="cls-93" d="M384.12,252.26c-1.31,1-2.85.84-4.29.7-4.49-.44-8.69.73-12.88,2-5.28-1.44-10.76.37-16.05-1a5.33,5.33,0,0,1-2-.1c-3.87-1.79-7-.53-7.57,3.37-.62,4.26,3.24,5.53,6.59,5.47,11-.22,22.15,1.56,33-1.86a23,23,0,0,1,9.09,0c.17,1.59-1,2.13-2.13,2.19-5.8.32-11.26,2.64-17.19,2.39-7.45-.32-14.93-.06-22.4-.09-2.73,0-5.31-.46-7.41-2.35s-3.22-3.87-2.38-6.61,2.37-5.13,5.64-5.61c.65-.1-.14-.13.49,0,12.69,1.86,25.42-1.06,38.12.29A2.74,2.74,0,0,1,384.12,252.26Z" transform="translate(0 0)"/><path class="cls-94" d="M436.78,217.75c1-3.37,4.24-2.79,6.52-3.55,5.37-1.81,10.67-4,16.49-4.23,3.36-.14,5,.86,5.62,4.49,1.32,7.6-.53,14.34-5.5,17.52-1.45-2.38.49-4.11,1.35-5.89A17.19,17.19,0,0,0,462.77,216c-.36-2.72-1.53-3.9-4.29-3-7,1.18-13.41,4.56-20.45,5.61A1.71,1.71,0,0,1,436.78,217.75Z" transform="translate(0 0)"/><path class="cls-95" d="M427.67,210.77l.12,1.11c-3.7,0-6.84,2.09-10.28,3.06-6.15,1.72-12.26,3.48-18.59,4.19-2.34.26-3.17,2.21-4.9,3a2,2,0,0,1-.61-1.46c1.69-5.06,6.66-4.87,10.33-5.45,6.63-1.07,12.74-3.56,19.12-5.3C424.55,209.72,426.23,209.55,427.67,210.77Z" transform="translate(0 0)"/><path class="cls-96" d="M423.09,246.05a25.73,25.73,0,0,0,7.71-7.24c1.13-.58,1.45-3,3.47-1.56.65,2.07-.52,3.66-1.79,4.85-7.64,7.13-15.59,13.82-26.4,15.62a2.48,2.48,0,0,1-1.32-.71c2.29-4.74,7.57-3.84,11.25-6h0C417.75,248.53,420.6,247.55,423.09,246.05Z" transform="translate(0 0)"/><path class="cls-97" d="M458.89,211.9c3.88-1.42,5.06.14,5.56,4,.78,6.15-2.07,11-4.54,16l-1,1c-2.37,1.69-4.69,3.46-7.22,4.92L450,239a.92.92,0,0,1-1.25,0c-.83-2.87,1.69-3.67,3.21-5,2.41-2,5.21-3.72,6.76-6.49C461.52,222.43,463.63,217.17,458.89,211.9Z" transform="translate(0 0)"/><path class="cls-98" d="M416,251c-3.36,2.73-8,3-11.3,5.82a16.18,16.18,0,0,1-14.55,4.25l-9.24-.23c4.27-2.23,9.12-1.11,13.74-2.4,5.88-1.64,10.76-5.26,16.64-6.61C412.87,251.52,414.34,250.83,416,251Z" transform="translate(0 0)"/><path class="cls-99" d="M393.84,220.71l.18,1.46c-.41,4.28,1.75,6.18,5.8,5.83,4.66-.39,9.53.37,13.88-2.14a2,2,0,0,1,2.42.18c-3.47,5.41-18.17,7.39-22.6,3C391,226.55,391.07,223.67,393.84,220.71Z" transform="translate(0 0)"/><path class="cls-100" d="M422,233.08a3.44,3.44,0,0,0-.2.78c-4.26,3.63-8.5,7.27-13.78,9.41a6.65,6.65,0,0,1-3.35,1.27,1.89,1.89,0,0,1-1.16-.85,2.23,2.23,0,0,1,1.45-2.81c6.14-2.1,10.49-6.72,15.31-10.68a2.26,2.26,0,0,1,2.73-.39C424,231.29,422.94,232.16,422,233.08Z" transform="translate(0 0)"/><path class="cls-101" d="M433.82,236.84c-1.11.51-1.55,2-3,2,3.92-5.07,4.83-10.84,4.18-17.05-.17-1.56-.44-3.41,1.8-4l1.27.31c-.28,4.68.41,9.41-.8,14.05C436.72,234.18,436.48,236.36,433.82,236.84Z" transform="translate(0 0)"/><path class="cls-102" d="M422,233.08l1-3.06c-.4-4.54-4.85-1.92-6.74-3.82l-2.56-.34c2.73-1.66,6.12-.54,9-2.45,1.77-1.18,3.73.75,3.35,2.87C425.57,228.89,425.24,231.93,422,233.08Z" transform="translate(0 0)"/><path class="cls-103" d="M467.15,229.82c.12-3-1.59-5.67,1.26-7.6a1.5,1.5,0,0,1,2.12.71C471.53,225.77,470.82,228.05,467.15,229.82Z" transform="translate(0 0)"/><path class="cls-104" d="M407.73,242.86c5.41-1.89,8.86-6.86,14.11-9-3,4.74-7.68,7.34-12.72,9.38A1,1,0,0,1,407.73,242.86Z" transform="translate(0 0)"/><path class="cls-105" d="M399.93,248c-5,2.49-10.6,2.65-15.81,4.31a3.77,3.77,0,0,1-.34-.54c1.72-3.85,5.47-3.41,8.68-4.09,2.49,0,4.64-2.39,7.31-1A.9.9,0,0,1,399.93,248Z" transform="translate(0 0)"/><path class="cls-106" d="M434.92,189c-.31-3.18,1.86-3.07,4-3,2.84,4.2-.15,4-3,4C434.89,190.37,434.65,190,434.92,189Z" transform="translate(0 0)"/><path class="cls-54" d="M454,282c0-3,0-6,0-9C457.78,276,456.51,279,454,282Z" transform="translate(0 0)"/><path class="cls-107" d="M350.9,254c5.34.48,10.8-1.09,16.05,1C361.61,254.47,356.14,256,350.9,254Z" transform="translate(0 0)"/><path class="cls-98" d="M423.09,246.05c-1.76,2.54-4.52,3.65-7.11,5C417,247.43,419.67,246.22,423.09,246.05Z" transform="translate(0 0)"/><path class="cls-76" d="M434.92,189l1,1c0,.3,0,.6,0,.91a18.88,18.88,0,0,0-8-.85C429.89,187.23,432.44,188.37,434.92,189Z" transform="translate(0 0)"/><path class="cls-94" d="M451.69,237.89c1.8-2.53,4.64-3.53,7.22-4.92-1,2.73-4,3.27-5.81,5.11Z" transform="translate(0 0)"/><path class="cls-54" d="M451.17,289l2.74-5C455.23,286.12,454.74,287,451.17,289Z" transform="translate(0 0)"/><path class="cls-108" d="M399.93,248c0-.32,0-.64,0-1,0-2.78,1.54-3,3.72-2.39a.85.85,0,0,1,.26,1.34C402.57,246.55,401.68,248.1,399.93,248Z" transform="translate(0 0)"/><path class="cls-107" d="M403.92,245.93c0-.31,0-.62,0-.93.06-.59.66-.68,1-1l2.82-1.11,1.39.38A7.49,7.49,0,0,1,403.92,245.93Z" transform="translate(0 0)"/><path class="cls-54" d="M454.94,260c1-2.25,3.05-2,5-2.06A5.57,5.57,0,0,1,454.94,260Z" transform="translate(0 0)"/><path class="cls-54" d="M448.88,268c-1.54-2.32-1.62-4.37,1-5.95C449.58,264.06,449.23,266.05,448.88,268Z" transform="translate(0 0)"/><path class="cls-54" d="M453.91,273l-2-3C453.88,270.1,455,270.79,453.91,273Z" transform="translate(0 0)"/><path class="cls-109" d="M326,187l1.93-1.28c.87-1.54,2.78-.79,3.91-1.77l2.12-2.09a19.42,19.42,0,0,1,5.08-2.81v0c.32-1.48,1.87-1.34,2.74-2.1a4.42,4.42,0,0,1,3.18-2c2.39-2.15,5.29-3.49,8.1-5a5.54,5.54,0,0,1,3.91-2.21,1.84,1.84,0,0,1,1.93-.09c-.36,4.22-4.64,4.27-6.88,6.49a13.13,13.13,0,0,1-1.15.66,40.93,40.93,0,0,0-5,3.22c-11.79,8.4-24.57,15.13-37.17,22.17a9.05,9.05,0,0,1-3.19,1.33,2.94,2.94,0,0,1-1.4-.32c-.88-1.2.14-1.69.84-2.31a48.25,48.25,0,0,1,15-8C321.43,188.85,324.18,188.64,326,187Z" transform="translate(0 0)"/><path class="cls-29" d="M305,199c-.33.66-.67,1.31-1,2-.52,2-2.27,2.8-3.85,3.64a243.88,243.88,0,0,0-25.26,15,12.21,12.21,0,0,1-5.4,2.43c-2.83.37-5.49-.11-6.82-2.9s-1-5.52,2.1-7.23a1.09,1.09,0,0,1,1.34.45c-.3,2.16-3.69,3.93-.67,6.52,2.62,2.25,4.57.52,6.6-.86A253.87,253.87,0,0,1,305,199Z" transform="translate(0 0)"/><path class="cls-110" d="M274.92,177c4.87,4.91,9.71,9.85,14.63,14.7,2.55,2.51,3.87,4.52-.54,6.63-4.11,2-8,4.47-11.94,6.74a2.23,2.23,0,0,1-2,.15c-.46-2.67,2-3.09,3.38-4.25a29.65,29.65,0,0,1,7-3.82c2.58-1.16,2.72-2.51.59-4.4A92,92,0,0,1,273.41,180a3.22,3.22,0,0,1,.21-2.88A.83.83,0,0,1,274.92,177Z" transform="translate(0 0)"/><path class="cls-111" d="M234.27,111.87c3.54,3.83,3.87,9.53,7.7,13.2v0c1.06,1.14,1,2.86,2,4,.11,1.07-.18,2.28,1.06,2.93,2,1.56,2.5,4.11,4,6a3.11,3.11,0,0,0,1.89,3,13.13,13.13,0,0,1,3.1,5c-.7,2.27,2,3.08,2.13,5,.25,1.09,1.78,1.89.74,3.28-4,.12-3.28-4.26-5.52-5.82-3-5.08-6.23-10.06-9-15.3a107.92,107.92,0,0,0-7-13.16c-.4-2.42-2.27-4.42-2-7A1.73,1.73,0,0,1,234.27,111.87Z" transform="translate(0 0)"/><path class="cls-32" d="M359,168.07l-2.06-.23c.7-2.52,3-2.94,5-3.83.78-1,2.11-1.17,3-2,2.92-2.68,7.74-2.2,10-6,1.11-2.08,2.66-3.16,5.09-2.23a2.33,2.33,0,0,1,.4,2.13c-5.54,5-12.07,8.42-18.68,11.73A3.26,3.26,0,0,1,359,168.07Z" transform="translate(0 0)"/><path class="cls-112" d="M410.94,141h13a1,1,0,0,1-.23,1.42c-5.34,1.5-11.18.59-16.28,3.31-3,.32-5.77,1.64-8.63,2.54-1.22.22-2.45.67-3.68,0-.95-1.23.15-1.7.87-2.31l2-.06c3.16-1.76,7.05-1.67,10-3.94A3.5,3.5,0,0,1,410.94,141Z" transform="translate(0 0)"/><path class="cls-113" d="M395,148.16l3.09-1a1.84,1.84,0,0,1,.31,1.42c-4.28,3.86-9.84,5.2-14.9,7.53-1.2.17-2.42.61-3.59-.14l.25-1.84a2.7,2.7,0,0,1,.87-1,34.15,34.15,0,0,1,4.18-2l3.74-.32C390.28,148.36,392.78,148.58,395,148.16Z" transform="translate(0 0)"/><path class="cls-114" d="M256.89,154.21l-.78-3.19c2.82,3.86,6.5,7.16,7.93,11.94a1.82,1.82,0,0,1-1.33.58C258.91,161.59,256.39,158.84,256.89,154.21Z" transform="translate(0 0)"/><path class="cls-35" d="M262.83,163.07,264,163c.65.35,1.3.7,1.94,1.06.42.91,1.32,1.35,2,2,.61,3.33,3.46,5.27,4.95,8a1.78,1.78,0,0,1-1.24.49,6.78,6.78,0,0,1-3.47-2.22C266.32,169.31,262.68,167.29,262.83,163.07Z" transform="translate(0 0)"/><path class="cls-115" d="M274.84,204.93l2.23.17c-3.65,2.45-6.62,5.93-11,7.23l-.1-.4a1.62,1.62,0,0,1-.26-1.33A13.47,13.47,0,0,1,274.84,204.93Z" transform="translate(0 0)"/><path class="cls-8" d="M270,159l3,2.07c.53,1.39,2.14,2.24,2,4C270.46,165.36,270.07,162.3,270,159Z" transform="translate(0 0)"/><path class="cls-9" d="M380.92,153.94a1.87,1.87,0,0,1-.76.2c-2-.21-3.49,1.22-5.21,1.89-2.09-4.75,1.57-3.77,4-4C380,152.23,381.25,152.28,380.92,153.94Z" transform="translate(0 0)"/><path class="cls-8" d="M249,138c-2.66-1.12-2.71-4-4-6,1-.93,1.12-1.36,2.3.45A9.79,9.79,0,0,1,249,138Z" transform="translate(0 0)"/><path class="cls-9" d="M353.06,170.05c-2.22,2.45-5.2,3.65-8.1,5A9.56,9.56,0,0,1,353.06,170.05Z" transform="translate(0 0)"/><path class="cls-8" d="M380.92,153.94l-2-1.92c1.87-1.82,4.16-.73,6.27-.89C384.05,152.47,383.07,154.1,380.92,153.94Z" transform="translate(0 0)"/><path class="cls-8" d="M395,148.16,389,150.81c.75-3.91,5.05-2.62,7-4.78Z" transform="translate(0 0)"/><path class="cls-8" d="M261,145c2.18,1,3,3.07,4,5-.85-.07-2.17,3-2.28.21C262.64,148.07,260.64,147,261,145Z" transform="translate(0 0)"/><path class="cls-8" d="M268,166a1.85,1.85,0,0,1-2-2c.47.12,1,.48,1.39.33,1.35-.58-1.25-2.13.54-2.58.35-.08,1.07.71,1.41,1.23C270.38,164.62,269.19,165.35,268,166Z" transform="translate(0 0)"/><path class="cls-8" d="M254,146.05c-1.3-1.49-3.18-2.62-3.1-5C253.76,141.58,254.67,143.32,254,146.05Z" transform="translate(0 0)"/><path class="cls-8" d="M268,154.12,270,157c-1.39.11-.44,3.17-2.46,2.15-2.17-1.09,1-1.86.44-3.08A4.81,4.81,0,0,1,268,154.12Z" transform="translate(0 0)"/><path class="cls-8" d="M247,120c2,1.08,2.61,3,3,5A4.32,4.32,0,0,1,247,120Z" transform="translate(0 0)"/><path class="cls-116" d="M396.94,140c.83,0,1.67,0,2.49,0s2-.14,1.9,1c-.12,1.34-1.5.85-2.39,1A3.43,3.43,0,0,1,396.94,140Z" transform="translate(0 0)"/><path class="cls-9" d="M339,179.08c-1.58,1.13-2.62,3.25-5.08,2.81C334.65,179.15,336.83,179.08,339,179.08Z" transform="translate(0 0)"/><path class="cls-29" d="M326,187c-1.44,2.18-4.06,2.6-6,4C320.8,187.91,323.6,187.76,326,187Z" transform="translate(0 0)"/><path class="cls-9" d="M323,180c1.5-1.26,2.85-2.78,5-3C327.18,179.51,325.44,180.38,323,180Z" transform="translate(0 0)"/><path class="cls-8" d="M375,149v-.93l3-1.07c.2.75.81,1.86.52,2.2C377.36,150.51,376.17,148.72,375,149Z" transform="translate(0 0)"/><path class="cls-8" d="M244,129.07c-1.66-.84-2.11-2.29-2-4C243.85,125.78,244.09,127.34,244,129.07Z" transform="translate(0 0)"/><path class="cls-117" d="M271.73,174.13l1.2-.06,2,3-1.1,0C271.78,177.05,271.14,176,271.73,174.13Z" transform="translate(0 0)"/><path class="cls-9" d="M368.71,152.87c1.37,1.8,1.66,2.62,1.38,3.55,0,.05-.71,0-.73-.08C369.17,155.63,369.07,154.89,368.71,152.87Z" transform="translate(0 0)"/><path class="cls-29" d="M331.84,184c-1,1.23-2.64,1.12-3.91,1.77C328.44,183.39,330.36,184.17,331.84,184Z" transform="translate(0 0)"/><path class="cls-9" d="M365,162a3.09,3.09,0,0,1-3,2C362.05,162,363.5,162,365,162Z" transform="translate(0 0)"/><path class="cls-9" d="M341.78,177,339,179.1C338.45,176.44,340,176.53,341.78,177Z" transform="translate(0 0)"/><path class="cls-118" d="M234.27,111.87l-.38,1.33-.68.17a3,3,0,0,1-1.11-.84c-1.79-2.94-2.76-6.32-4.76-9.16a29.35,29.35,0,0,1-2.21-4.19,14,14,0,0,0-3.1-5.81,171.37,171.37,0,0,0-29.69-35.85c-3.35-3-7.27-5.19-10.73-8-1.2-1-3.22-1.35-2.61-3.63a1.42,1.42,0,0,1,1.95.28l3.82,2c10.14,7,18.43,15.92,26.45,25.13,1.19,1.37,2.46,2.66,3.7,4,1.35,3.39,3.83,6,6.07,8.8,2.14,1.53,2.78,4,3.94,6.19Q229.59,102.06,234.27,111.87Z" transform="translate(0 0)"/><path class="cls-119" d="M89.57,45.35V24.79c1.94,2.53,1.22,5.31,1.51,8,.21,2-1,4.32,1.92,5.59,1.57.7.46,2.19-.23,2.91C91.59,42.49,90.91,43.91,89.57,45.35Z" transform="translate(0 0)"/><path class="cls-120" d="M95,62.1c-6.63,1.17-5.51-3.08-4.89-7,3.5-5.9,8.07-10.61,14.58-13.18l.59.37c-1,3-4,4.31-5.85,6.56a51.9,51.9,0,0,1-4.48,4.66C91.71,56.49,93,59.25,95,62.1Z" transform="translate(0 0)"/><path class="cls-2" d="M170,39.1c1.42-.86.57-4.62,4.06-2.91s6.55,3.09,4,7.68C174.12,44.34,171,43.57,170,39.1Z" transform="translate(0 0)"/><path class="cls-121" d="M155.06,35a12,12,0,0,0,6.86,2.18.87.87,0,0,1-.2,1.36c-4.14,2.05-7.64-2-11.65-1.2a11.64,11.64,0,0,1-2.41-.45c-4.7-1.9-9.54-1.83-14.42-1-2.26.4-4.5.8-6.71-.23a1.15,1.15,0,0,1-.57-1.45,4.4,4.4,0,0,1,3-1.56c6.68.44,13.54-1.53,20,1.43h0C150.9,35.3,153.16,33.93,155.06,35Z" transform="translate(0 0)"/><path class="cls-122" d="M162.05,38.05a3.74,3.74,0,0,0-.13-.87c3-.46,4.94,3.13,8.06,1.92,1.79,3.09,5.37,3.17,8.05,4.77,1.3.33,2.47.85,2.92,2.28l-2,0c-4.24.74-7.23-2.49-10.94-3.42C166.11,41,163,40.9,162.05,38.05Z" transform="translate(0 0)"/><path class="cls-122" d="M149,34.11c-7.78-1.28-15.56-2.37-23.23.65-1.53,1.84-3.14,1.74-4.81.19,7.7-4.17,16.07-2.66,24.23-2.78A4.24,4.24,0,0,1,149,34.11Z" transform="translate(0 0)"/><ellipse class="cls-4" cx="58.11" cy="67.6" rx="15.36" ry="0.34"/><path class="cls-123" d="M112,39l1.08-.93c3.54.33,6.35-2.53,9.86-2.28.8,2.73-1.3,3.55-3.1,4-2.71.66-5.22,2-8.05,2.25a3.45,3.45,0,0,1-1.46-.51C108.88,39.36,111.62,40,112,39Z" transform="translate(0 0)"/><path class="cls-4" d="M89,68h-11C81.73,65.13,85.38,65.15,89,68Z" transform="translate(0 0)"/><path class="cls-124" d="M158.24,28c2.07-.34,4.23-1.14,5.82,1.08-2.07.38-4.05,1.35-6.24,1-.9-.14-2.37.16-2.15-1.21C155.83,27.83,157.31,28.15,158.24,28Z" transform="translate(0 0)"/><path class="cls-121" d="M123.07,36.22c-3.47-.06-6.31,3.29-10,1.83L121,35l4.81-.19c.16.19.31.37.48.55a1.22,1.22,0,0,1-.51,1.23A2.27,2.27,0,0,1,123.07,36.22Z" transform="translate(0 0)"/><path class="cls-4" d="M39.09,63.11l7,0a2.8,2.8,0,0,1-3,2.93h0C42.09,64.62,39.63,65.16,39.09,63.11Z" transform="translate(0 0)"/><path class="cls-121" d="M112,39c.21,1.67-1.53,1.19-2.15,1.94-1,1.83-2.49,2.42-4.43,1.36a5.71,5.71,0,0,1-.7-.35C106.52,39.52,109.38,39.6,112,39Z" transform="translate(0 0)"/><path class="cls-62" d="M98,20.07c-1.66,2.42-.19,6-3,8C96.05,25.41,94.61,21.84,98,20.07Z" transform="translate(0 0)"/><path class="cls-4" d="M89.06,56.07c-.34,2-.67,4-1,6C86.38,59.73,85.16,57.47,89.06,56.07Z" transform="translate(0 0)"/><path class="cls-38" d="M154.08,21c1.2,1.55,2.72,2.91,2.85,5.06C153.65,25.71,154,23.28,154.08,21Z" transform="translate(0 0)"/><path class="cls-4" d="M75.08,68.08c-.79,1.78-2.26,2.06-4,1.85C72.74,70,72.07,65.08,75.08,68.08Z" transform="translate(0 0)"/><path class="cls-4" d="M97.06,72a3,3,0,0,1-3-2C95.43,70.16,98.44,67.76,97.06,72Z" transform="translate(0 0)"/><path class="cls-122" d="M155.06,35c-2.05-.07-4.21.63-6.05-.89C151.05,34.24,153.22,33.48,155.06,35Z" transform="translate(0 0)"/><path class="cls-4" d="M97.06,66.14a4.88,4.88,0,0,1,4,1.92C99.47,67.87,97.42,68.73,97.06,66.14Z" transform="translate(0 0)"/><path class="cls-4" d="M43.08,66.06c-.15,1-.39,2-1.71,1.77-.31,0-.83-.71-.75-.89.45-1.18,1.57-.75,2.46-.88Z" transform="translate(0 0)"/><path class="cls-125" d="M423.87,142.2c0-.39,0-.77,0-1.16,7.15,3.05,11.39,8.14,11,16.23-.16,3.23.9,6.57-.79,9.67-.1-1-.19-2.06-.29-3.1-1.92-2.44-.57-5.46-1.38-8-1.25-4-2.2-8.27-6.4-10.59C424.93,144.61,423.75,143.79,423.87,142.2Z" transform="translate(0 0)"/><path class="cls-125" d="M410.94,141c-.74,1.12-1.91.95-3,1C408.34,139.9,409.28,139.39,410.94,141Z" transform="translate(0 0)"/><path class="cls-2" d="M224.93,92.26c-2.14-1.54-2.67-4.1-3.94-6.19,1.58-.79.49-2.32,1.41-3.57C221.91,86.17,225.2,88.66,224.93,92.26Z" transform="translate(0 0)"/><path class="cls-36" d="M244,112q1,2,2.05,4C243.28,115.76,244.2,113.61,244,112Z" transform="translate(0 0)"/><path class="cls-36" d="M242,109a3.35,3.35,0,0,1,2,3C241.93,111.94,242,110.47,242,109Z" transform="translate(0 0)"/><path class="cls-126" d="M105,16l1-1c1.27-.5,2.22-1.91,3.86-1.36,3.54,1.84,7.18,3.44,10.8,5.1,1.35.62,3,.83,3,2.84a2.35,2.35,0,0,1-1.2,1.64c-.62.3-1.3.44-1.94.68a20.37,20.37,0,0,0-3.73,1.23,6.31,6.31,0,0,0-1.66.93h0c-3.2,1.79-7,1.91-10.19,3.8l-3.29.87c-2.51.66-4.17.58-3.47-2.9A22.5,22.5,0,0,1,101,20a7.88,7.88,0,0,1,.24-.83C102,17.61,103.8,17.15,105,16Z" transform="translate(0 0)"/><path class="cls-127" d="M101,20c.57,2.94-2,4.91-2.27,7.8s1.15,2.72,2.86,3c-.63,2.21-2.24,3-4.2,2.2-2.39-1-.86-2.84-.37-4.25C98.06,25.7,97.42,21.88,101,20Z" transform="translate(0 0)"/><path class="cls-128" d="M115.06,26.09l1-1c1.18-1.09,2.73-1.4,4.18-1.91l1.81-.1c4.38-2.17,8.89-1.68,13.43-.67A1.09,1.09,0,0,1,136,24C129,24.28,121.87,23.72,115.06,26.09Z" transform="translate(0 0)"/><path class="cls-63" d="M136,24c0-.28,0-.57,0-.85.28-1.19,1.26-1.63,2.21-2.09a22,22,0,0,0,2.48-1.68l.45-.36c2.11,2,3.13,3.69-.93,4.33Z" transform="translate(0 0)"/><path class="cls-128" d="M104.86,29.89a16.26,16.26,0,0,1,10.19-3.8C112.33,29.15,108.34,28.84,104.86,29.89Z" transform="translate(0 0)"/><path class="cls-127" d="M105,16c-.71,1.68-1.69,3.06-3.73,3.2-.09-.37-.18-.74-.28-1.11l2.11-2Z" transform="translate(0 0)"/><path class="cls-129" d="M140.73,19.33c.11,1.28-.23,2.24-1.69,2.41q-.51-.39-1-.81c-.69-.81-1.21-1.76-1.93-2.54-1.31-1.65-3.22-2.22-5.08-2.88-5.58-2.67-11.43-2.38-17.33-1.69A7.53,7.53,0,0,1,110,14L106,15c5.14-5.47,11.84-5.7,18.43-4.68A28.86,28.86,0,0,1,138,16.14Z" transform="translate(0 0)"/><path class="cls-1" d="M123.07,36.22l2.86-.22c7.41-.69,14.83-1.76,22.25,0l1.85.12q9.45,2.51,18.77,5.37L179,46.1c7.36,5.39,14.89,10.52,21.22,17.23,8.64,9.16,16.5,18.84,22.79,29.76A52,52,0,0,0,226.15,99c.54,1.37,2,2.27,2,3.93,1.67,3.35,2.46,7.14,4.93,10.1v0c.93,2.63,2.5,5,3.12,7.74,2.81,3.8,4.52,8.23,7,12.24a115.8,115.8,0,0,1,8.94,14.95c4.22,9.53,10.74,17.5,17.31,25.42a46.73,46.73,0,0,1,4.77,6.58c4.85,4.51,9.74,9,14.49,13.59,1.3,1.26,1.75,2.43-.72,3.67-4.51,2.27-9.27,4.26-13.08,7.76L266,211c-4,3.34-4.91,5.95-2.9,8.69s6.36,3.29,9.88.7c10.11-7.47,21.35-13,32.18-19.22,13.59-8.07,27.68-15.28,40.81-24.14a12,12,0,0,0,5-3h0c4.6-1.88,8.21-5.48,12.74-7.48,6.28-4.06,12.72-7.85,19.26-11.46l15.15-6.89c3.29-1.42,6.76-2.37,10.13-3.57,3,0,5.51-2.11,8.65-2.13,8.31-.06,12.53,2.83,15,10.83,1.22,3.93,1.65,7.87.12,11.83L430.9,169c-.75,2.1-2.12,3.88-3.1,5.86-2.15,2-4.21,4.17-6.47,6.07a6.32,6.32,0,0,0-2.21,7.12,6.41,6.41,0,0,0,6,4.39c2.46.18,4.95-.21,7.42-.21,3.38,0,6.2,1.2,7.45,4.56,1.18,3.15-.7,5.35-2.83,7.32-.72.67-1.54,1.24-2.32,1.85C431,208,427.2,210,422.94,211c-7.59,4.09-16.22,4.5-24.31,6.81-2,.57-3.75,1-4.79,2.87-2.46,5.23-.09,10.2,5.26,9.49,5.76-.76,12-.23,17.16-4a18.74,18.74,0,0,0,3.83-.13c4.24-1,4.5.75,2.91,4a140.39,140.39,0,0,1-19.27,13.65,80.63,80.63,0,0,1-11.49,4.77,4.14,4.14,0,0,0-1,0c-15,4.78-30.4,3.15-45.72,3-1.82,0-3.75-.26-4.94,1.57s-3.18,3.59-1.91,6.24c1.37,2.84,3.35,5,6.71,5.18,3,.15,6,0,8.95.05,5,1.65,10,1.31,15,0,12.81.21,24.91-3.09,36.82-7.35a63.29,63.29,0,0,0,23.48-14c1.95-1.83,3.95-3.49,4.19-6.38,3.24-3.85,2.88-8.49,2.66-13-.1-2.19-.3-4.2,1.57-5.76,6.83-2.45,13.51-5.4,20.84-6.16,3.3.63,4.29,2.55,4.15,5.91-.29,6.8-3.33,11.87-8.6,15.86-2.05,1.55-4.73,2.45-5.5,5.32a.91.91,0,0,1,.35.72c0,.28,0,.42-.1.42-.53,1.6-.89,3.21.06,4.8a4.45,4.45,0,0,0,1.52,2.66,8.18,8.18,0,0,0,8,.13,1.9,1.9,0,0,1,1.31,0c1.5,1.09,2.87,2.26,3,4.3-.64,1.2-1.39,2.22-3,2a29.65,29.65,0,0,1-8.37,4,12.28,12.28,0,0,0-6,4.1,6,6,0,0,0-.13,6.34,10.64,10.64,0,0,1,1.25,1.74c5.35,2.72,5.85,7.18,4.46,12.32-1.67,3.08-1.73,6.88-4.33,9.54.42,1.88-1.56,2.44-2.09,3.8-5.92,8-13.6,13.89-21.92,19.11l0-.08c-16.87,11.6-35.73,18.25-55.6,22.4-6.21,2.52-13.05,1.26-19.35,3.26a7.59,7.59,0,0,1-1.7.25c-3.83,0-7.65.14-11.47-.09a40.35,40.35,0,0,0-13.77-1.35c-9,.57-17.67-2.33-26.58-2.76-3.8-2.64-8.64-1.71-12.63-3.69a1,1,0,0,1-.4-.31c-6.94-1.54-13.2-4.68-19.35-8.07-.11-2.58-2.16-1.4-3.43-1.75-9.49-3.39-17.06-9.77-24.84-15.84v0a3.72,3.72,0,0,0-3-3.05c-3.21-2.33-4.91-5.81-6.89-9.07-1.65-5.69-4.8-10.76-7.06-16.21a74.6,74.6,0,0,1-3.36-11.81c-1-4.26-1.94-8.68-2.8-13-1.95-9.87-4.45-19.62-5-29.73A7.85,7.85,0,0,0,203,219c-2.65-10.71-3.91-21.69-6.55-32.43-1.44-5.86-2.6-11.91-4-17.79-1.93-7.81-8.23-12.91-13.42-18.62-8.93-7.93-19.63-12.8-30.35-17.65-7.41-2.44-14.69-5.26-22-8a57.27,57.27,0,0,1-9.41-4.18c.32-1.67.32-1.67-2.45-1.22-6.44-1.63-6.65-2-3-7.42,1.05-1.55.44-3.64,2-4.89,1.32-1.28,1.38-3,1.37-4.63a7.11,7.11,0,0,1,.22-1.37c1.48-3.45,2.15-6.92.18-10.43a4.87,4.87,0,0,1-.41-2c-.08-1.48.15-3-.48-4.42-.17-.39-.32-.78-.47-1.17a27,27,0,0,0-1.84-4,52.77,52.77,0,0,0-9.2-12.45c-3.12-2-5.77-4.71-9.4-6.06-2.43-.91-1.55-3-.5-4.56,4.5-6.61,9.7-12.42,17.89-14.52C114.56,38.35,120.15,40.45,123.07,36.22Z" transform="translate(0 0)"/><path class="cls-130" d="M423,315.07c1.4-3.32,5-4.07,7.45-6,5.22-4,9.19-9.27,14.47-13.13-.86,3.81-4.21,5.87-6.21,8.88l-6.82,5.09C428.89,311.53,427,315.16,423,315.07Z" transform="translate(0 0)"/><path class="cls-131" d="M445.81,270.1l-1-1.09a15,15,0,0,1,0-7.09c3.72-5.31,10.12-5.39,15.32-7.83-1.56,3.14-5,3.5-7.65,4.67-6.94,3-8.11,5.73-4.4,12.15C446.94,271.7,446.51,270.53,445.81,270.1Z" transform="translate(0 0)"/><path class="cls-132" d="M459.84,248.24l-.46-.05-.46,0c-3,1.24-6,1.52-9-.21-1.19-.67-.91-1.89-1.09-2.94-1-1.72-.56-3.47-.08-5.22a5,5,0,0,1,.2-.85h1c-.18,8.2-.14,8.27,8.27,8,2.56-.07,5,.06,6.91,2.08s1.24,2.78-1.22,2.86C463.16,250.06,461.19,249.49,459.84,248.24Z" transform="translate(0 0)"/><path class="cls-133" d="M445.81,270.1l2.26.81c1.74.42,3.62.64,3.88,3a18,18,0,0,1,.09,8.33.56.56,0,0,1,0,.76.72.72,0,0,1-1.14-.07C451.83,277.6,450.66,273.12,445.81,270.1Z" transform="translate(0 0)"/><path class="cls-134" d="M450.88,282.91,452,283c-1.73,3-.84,7.47-5,9.18C448.83,289.29,448,285.34,450.88,282.91Z" transform="translate(0 0)"/><path class="cls-135" d="M459.84,248.24c1.31,1.29,4.82.19,4.07,3.73l-.4.14-.42-.06C461.84,250.92,460.41,250,459.84,248.24Z" transform="translate(0 0)"/><path class="cls-134" d="M452,282.22l-.09-8.33C453.28,276.65,452.77,279.44,452,282.22Z" transform="translate(0 0)"/><path class="cls-136" d="M367.75,336.71a239.19,239.19,0,0,0,33.08-10.11c5.3-2.05,10.15-5.33,15.08-8.27,2.28-1.35,4.34-3,7.08-3.34-4.44,4.92-10.51,7.37-16.18,10.32-5.46,2.84-11.25,5.06-16.89,7.55a80.66,80.66,0,0,0-14.73,3.46c-1.27.38-2.42,1.06-3.81.79C370.12,337.45,368.85,337.82,367.75,336.71Z" transform="translate(0 0)"/><path class="cls-137" d="M347,339.88a2.64,2.64,0,0,1,.84,0,4.57,4.57,0,0,1,4.31.17c-5.27,2.86-11.1,2.55-16.5,1.58-8.87-1.6-17.73-1.58-26.63-1.71-4.77-2.28-10.05-1.85-15.05-2.85-.53-.39-.51-.76,0-1.11,9.32.29,18.32,3.37,27.73,3a44.67,44.67,0,0,1,13.24,1A26.1,26.1,0,0,0,347,339.88Z" transform="translate(0 0)"/><path class="cls-138" d="M352.12,340l-4.31-.17c.74-.29,1.51-.89,2.22-.83,6.08.5,11.85-1.25,17.72-2.3l3.63.4c-.2.21-.41.41-.62.6C364.52,338.27,358.51,340.67,352.12,340Z" transform="translate(0 0)"/><path class="cls-77" d="M262.06,323.86l19.43,8.83c-3.54,1.3-6.16-1.91-9.44-1.91l-27-13.85c-3-4.11-8.63-5.23-11.14-9.89,7.2,3.53,12.6,9.87,20.14,12.86,1.66.66,3.29,1.38,4.94,2.07C260,322.67,261.48,322.48,262.06,323.86Z" transform="translate(0 0)"/><path class="cls-139" d="M294,335.92l0,1.11c-3.62-2.53-8.79-.43-12.05-4C286,333.62,290.28,333.59,294,335.92Z" transform="translate(0 0)"/><path class="cls-140" d="M149,132c9.71,4.09,19.15,8.68,27.6,15.06,1,.76,2.15,1.6,2.32,3.08-3.1-2-6.26-3.89-9.27-6a6.27,6.27,0,0,0-4.44-1.53l-1.06-.7c-2.84-3.55-7.2-4.6-11-6.55A24.21,24.21,0,0,1,149,133c-.32-.22-.43-.43-.32-.65S148.92,132,149,132Z" transform="translate(0 0)"/><path class="cls-141" d="M149,132c0,.32,0,.64,0,1-2.75.86-4.45-2.06-7-1.95l-6.93-2.17c-8.53-3.4-17.09-6.71-25.55-10.25-2.27-.95-2.38-2.82-.74-4.77,9.44-11.26,7-31.43-1.87-41.77-.94-2.62-3.74-3.64-5.09-5.9a1.38,1.38,0,0,1,2.18-.08c3.44,4,6.89,8.09,9.2,12.94a8.11,8.11,0,0,0,1.84,4v0c1.09,1.54-.2,3.51.93,5l.08,2c1.48,3.67,1.06,7.33,0,11a7.8,7.8,0,0,0,0,1c-1.19,1.49.24,3.52-1,5-2.53,2-3.08,5.31-4.42,7.9-1.67,3.23,2.31,2.78,4.37,3.2.75.58,1.5,1.16,2.21,1.78,9.54,3.74,19.09,7.43,28.58,11.26A12.91,12.91,0,0,0,149,132Z" transform="translate(0 0)"/><path class="cls-142" d="M28.1,69c15.38,4,31,1.61,46.54,1.73,5.3,0,10.5-3.17,16-.12A40,40,0,0,1,96,74.08,2.67,2.67,0,0,1,94,75c-2.09-.1-3.61-1.72-5.6-2.1a20,20,0,0,0-10.22.36c-6.32.48-12.65.12-19,.25-5.07,0-10.16,0-15.23,0-4.88-.77-10,1.77-14.76-1.07a3.43,3.43,0,0,1-1.56-1.87A1.66,1.66,0,0,1,28.1,69Z" transform="translate(0 0)"/><path class="cls-143" d="M93.92,74.18l2.08-.1c6.19,5.22,9.92,11.56,9.12,20a1,1,0,0,1-1.25.13c-1.32-1.46-.68-3.57-1.72-5.12a18.7,18.7,0,0,1-1.65-2.8c-.47-1.15-.54-2.42-1.11-3.53-.31-.53-.61-1-.9-1.58s-.55-1.13-.85-1.68a31.11,31.11,0,0,0-3.66-4A1.31,1.31,0,0,1,93.92,74.18Z" transform="translate(0 0)"/><path class="cls-144" d="M104.13,94.06h1c.89,7-.38,13.14-7.1,17a.74.74,0,0,1-1.14.13c-.32-2.82,2.62-4,3.18-6.39a8.31,8.31,0,0,1,.59-1.15,9.84,9.84,0,0,0,1.58-3.39c.1-.42.22-.83.35-1.24C103.13,97.35,102.51,95.35,104.13,94.06Z" transform="translate(0 0)"/><path class="cls-145" d="M96.91,110.78,98,111a2.11,2.11,0,0,1-.11.86,19.73,19.73,0,0,1-12,2.19c-4.22-.57-7.64,2-11.6,2.22l-.43-.71c3.23-4.6,8.16-3.67,12.72-3.92,2,0,4,.37,6-.61C94,110.45,95.38,109.77,96.91,110.78Z" transform="translate(0 0)"/><path class="cls-146" d="M28.1,69,28,70.13c-5.23.84-10-3-9.91-8.09,3.18,1.75,5.14,5.28,8.92,6.17Z" transform="translate(0 0)"/><path class="cls-145" d="M56.07,119.07c0-.31,0-.61,0-.92,5.55-3.59,11.42-4.8,17.78-2.41l.43.56c-.17.19-.33.39-.48.59C67.65,115.56,62.19,120,56.07,119.07Z" transform="translate(0 0)"/><path class="cls-147" d="M104,66.11l-2.18.08L95,62.1c-4.86-2.32-5.1-3.5-1.94-7.94a51.72,51.72,0,0,1,12.33-11.88c1.77.5,2.76-1.55,4.43-1.36l1.29.33c-5.7,2.93-10.82,6.49-14.88,11.61-3.39,4.27-3.43,5.17.86,7.93C99.52,62.36,101.72,64.32,104,66.11Z" transform="translate(0 0)"/><path class="cls-148" d="M32.24,84.93,23,85.08c-3.55-1.65-7.29-3-9.1-7a2,2,0,0,1,1.4-.6c4.88,2.62,9.51,5.87,15.44,5.72A1.59,1.59,0,0,1,32.24,84.93Z" transform="translate(0 0)"/><path class="cls-146" d="M15.18,78l-1.26.15c-4.06-5.31-5.41-10.9-1.79-17,.68-.27,1.08-1.21,2-.87.23.26.58.64.48.83C11.51,66.81,13.86,72.38,15.18,78Z" transform="translate(0 0)"/><path class="cls-149" d="M15.18,78c-4.35-5.68-4.88-11.58-1-17.74,1.91-.68,2.66,1.14,4,1.81,1.74,4.62,5.23,7.08,9.91,8.09.33.36.67.72,1,1.09.4,2.12-1.16,3.58-2.06,5.85,3.79-2.12,7-5.28,11.44-3.21a9.09,9.09,0,0,1,1.3,1.79c1.35,1.37,3.1,1,4.73,1,5.94.2,11.95-.64,17.73,1.68,1.84.73,3.95.26,5.87-.48,1.56-.61,3.14-1.19,4.75-.14C72.23,80,74.6,79.08,75.31,80a1.61,1.61,0,0,1-.26,2c-14.24,1.41-28.42,3.7-42.81,3-2.07-1.51-4.49-.46-6.7-.89C21.39,83.25,18.19,80.75,15.18,78Z" transform="translate(0 0)"/><path class="cls-150" d="M75.07,80.06,72,79.66l1.06-.6c.94-1.07.63-2.49,1-3.72a3.19,3.19,0,0,1,1.12-1.79c1.91-.59,4-.56,5.67-2,2.73.21,5.5-.49,8.19.45,2.14-.48,3.09,1.75,4.84,2.15a3,3,0,0,1,.15.84c1.23.83,2,1.86,1.35,3.42A94.84,94.84,0,0,0,95,100.2c.36,2.65,1,5.33-.82,7.75-1.26.86-2.29-.47-3.48-.36-3.63.31-5.5,4.09-9.16,4.52-2.26.26-4.42,1.45-6.76.41-2-1.78-5-.55-7-2.39a2.18,2.18,0,0,1,.1-2.23c2-.53,4.07-.38,6.07-.8,2.63.25,5.3.83,7.77-.77a1.92,1.92,0,0,1,.85-1c3.83-1.27,4-5.73,6.89-7.85,1.62-2.28.82-5,1.36-8.76-.49,2.8-.16,4.42-.42,6a.75.75,0,0,1-1.12.3c.76-6.42-3.45-9.45-8.24-12.08C79.64,80.81,76.78,81.62,75.07,80.06Z" transform="translate(0 0)"/><path class="cls-151" d="M89.32,95h.74a2.46,2.46,0,0,1,0,3c-.46,2.69-3.89,3.71-3.59,7.16.12,1.38-2.86.57-4.42.82a1.84,1.84,0,0,1-.47-1.87c.35-1.21,1.83-1.27,2.36-2.3l-.06.07C85.5,100.88,86.62,99.3,88,98,88.46,97,88.89,96,89.32,95Z" transform="translate(0 0)"/><path class="cls-152" d="M75.07,80.06c2.15.65,5.83-1.85,6,2.9l-6-1C75.06,81.34,75.06,80.7,75.07,80.06Z" transform="translate(0 0)"/><path class="cls-153" d="M88,98a5.38,5.38,0,0,1-4.16,3.9l3-4Z" transform="translate(0 0)"/><path class="cls-151" d="M93.06,108c2-2.46.56-5.34,1-8l.51-.48a2.6,2.6,0,0,1,2.66.24c.67,2,3.67,1.81,3.83,4.24.37,3.33-2.64,4.57-4.15,6.73l-3.85,1.28c-1.89,1.16-4.16-.21-6.06.9-4.59,0-9.15,0-13.14,2.78-6.13-.7-11.88,1.39-17.78,2.41-3.81-.4-7.38,1-11.09,1.43-1.41.15-2.64.44-3-1.44-1.16-2.45.85-2.67,2.31-3.33,2.78-1.26-.27-1.85-.34-2.79,1-2.3,3.1-1.93,5-2,1.55-1.4,3.64-1.58,5.44-2.41,3.83,0,7.65.42,11.47,0,.76,0,1.57-.11,2.15.58V110c1.87,2.28,5.09-.17,7,2,4.26,0,8.2-.39,11-4.46.78-1.12,3.28-1.06,5-1.54C91.86,106.58,91.87,107.9,93.06,108Z" transform="translate(0 0)"/><path class="cls-154" d="M44,112c1.48.28,3.73-.7,3.9,1.85s-2,2.07-3.58,2.17a2.15,2.15,0,0,0-2.29,2.1C40.48,115.39,40.93,113.28,44,112Z" transform="translate(0 0)"/><path class="cls-155" d="M54.09,108.13C53,110.36,51,110.07,49,110c0-.34,0-.67,0-1h0C50.64,108.21,52.11,106.67,54.09,108.13Z" transform="translate(0 0)"/><path class="cls-156" d="M68.07,108.14,66,108c-.26-.25-.33-.45-.2-.63a.5.5,0,0,1,.36-.23c4.2.84,7.67-2.31,11.75-2.17,1.43-.23,2.66-1.39,4.24-.88,0,.65,0,1.3-.07,2h0c-2.08,1.52-4.75,1-7,2Z" transform="translate(0 0)"/><path class="cls-87" d="M66.13,107.13c0,.29-.09.57-.15.86-4,1-7.93,0-11.89.14L49,109c1.25-2.49,3.6-2,5.68-2C58.52,107,62.32,107.08,66.13,107.13Z" transform="translate(0 0)"/><path class="cls-153" d="M82.12,104.08a6.62,6.62,0,0,1-4.24.88l3.42-2.61,2.64-.49A2.81,2.81,0,0,1,82.12,104.08Z" transform="translate(0 0)"/><path class="cls-157" d="M431,153c-2.41-7.89-10.07-11.77-17.84-9-1.56.56-3,1.34-4.75,1.13a1.48,1.48,0,0,1-1.91-.39c5.44-3.17,11.44-2.63,17.37-2.59,9.05,4.58,10.52,12.64,9.93,21.64-.26.12-.52.23-.77.36C431.64,160.6,433.41,156.42,431,153Z" transform="translate(0 0)"/><path class="cls-158" d="M422.94,211c3.83-2,7.66-4,11.91-5.07-1.56,2.85-5.12,2.7-7.18,4.81Z" transform="translate(0 0)"/><path class="cls-159" d="M431,153c3.24,3.26,1.24,7.48,2,11.19-.34.31-.68.62-1,.94A59.4,59.4,0,0,0,431,153Z" transform="translate(0 0)"/><path class="cls-157" d="M427.8,174.86c-.12-2.57,1.64-4.13,3.1-5.86C431.29,171.7,429.74,173.38,427.8,174.86Z" transform="translate(0 0)"/><path class="cls-97" d="M406.15,257.18c-9.28,5-19.4,6.85-29.74,7.78-2.47.23-5,.12-7.46.16-4.67,1-9.33,1.38-14,0-3-.05-6-.07-9-.14-4.28-.11-9-4.3-8.84-7.76s4.07-6.36,8.69-6.36c4.33,0,8.66-.06,13,.1a119,119,0,0,0,34-3.15.65.65,0,0,1,.33.68c-.07.26-.14.38-.23.38-3.07.87-6.58.3-9.14,2.83-12.42.09-24.81,1.76-37.26.28-4.21-.5-7.57,2.33-7.07,5.68.52,3.55,2.76,6.07,6.71,6.11,14.73.16,29.51,1.1,44-2.68,5.08-.65,9.71-2.8,14.55-4.25Z" transform="translate(0 0)"/><path class="cls-160" d="M392.92,248.89c0-.35-.06-.71-.1-1.06a40,40,0,0,1,10.91-4.16l1.18.3-1,1a4.08,4.08,0,0,0-4,2C397.34,246.66,395.4,248.79,392.92,248.89Z" transform="translate(0 0)"/><path class="cls-161" d="M305.11,201.13c-3,3.22-7.1,4.57-10.74,6.69-7.24,4.23-14.46,8.44-21.32,13.28-2.12,1.5-4.8,2.85-7.89,1.19-2.47-1.34-4-3-3.81-5.8s1.49-5,4.6-5.53a1.1,1.1,0,0,1,0,1c-2.27,1.81-4.67,3.75-2.37,6.93s5.73,2.77,8.48.92c9-6.11,18.45-11.5,28-16.72,1.29-.71,2.59-1.4,3.89-2.1Z" transform="translate(0 0)"/><path class="cls-162" d="M364,167.13c-4.47,2.07-8,6-13.07,6.88l8.07-5.94,1.67-1.2C361.84,166.5,363,166.18,364,167.13Z" transform="translate(0 0)"/><path class="cls-162" d="M351,174c-.59,2.83-2.79,2.94-5,3C347.47,175.78,348.67,174,351,174Z" transform="translate(0 0)"/><path class="cls-163" d="M274.15,179.91c-2.27-1.46-3.66-3.73-5.29-5.78A1.7,1.7,0,0,1,269,172l2.74,2.11c0,1.45,1,2.22,2.09,2.94Z" transform="translate(0 0)"/><path class="cls-164" d="M269,172c-.05.7-.09,1.4-.13,2.11a123.27,123.27,0,0,1-15.92-22.55c-.64-1.22-1.22-2.29-.87-3.67,2.5,1.41,2.16,5,4.82,6.3a18.53,18.53,0,0,0,5.94,8.86Q265.9,167.54,269,172Z" transform="translate(0 0)"/><path class="cls-165" d="M243.13,133c-3.76-3.09-4.57-8-7.23-11.77a.91.91,0,0,1,.27-1.47A39.4,39.4,0,0,1,243.13,133Z" transform="translate(0 0)"/><path class="cls-166" d="M236.17,119.72l-.27,1.47c-.68-2.83-3.63-4.87-2.85-8.21a2.6,2.6,0,0,1,.84.22C234.25,115.51,236.6,117.13,236.17,119.72Z" transform="translate(0 0)"/><path class="cls-167" d="M364,167.13l-3.33-.26L379.91,156l3-.91c-4.59,4.26-10.5,6.48-15.6,10C366.28,165.78,365.14,166.44,364,167.13Z" transform="translate(0 0)"/><path class="cls-168" d="M406.5,144.79l1.91.39c-3.51.73-6.47,3.35-10.3,3,0-.34,0-.67,0-1C401.1,147.12,403.25,144,406.5,144.79Z" transform="translate(0 0)"/><path class="cls-166" d="M233.06,113c-3.68-2.37-4.05-6.36-4.94-10.1A35.51,35.51,0,0,1,233.06,113Z" transform="translate(0 0)"/><path class="cls-169" d="M226.15,99c-1.91-1.5-3.26-3.3-3.18-5.88C224.46,94.82,226.18,96.42,226.15,99Z" transform="translate(0 0)"/><path class="cls-123" d="M148.18,36l-22.25,0a1.83,1.83,0,0,1,.33-.69C133.58,35.06,141,32.12,148.18,36Z" transform="translate(0 0)"/><path class="cls-123" d="M168.8,41.47A64.07,64.07,0,0,1,150,36.1c4.33-1.31,7.7,3.2,12,1.95Z" transform="translate(0 0)"/><path class="cls-170" d="M110,14c.75-1.12,1.91-.92,3-1,6,1,12.14,1.58,18.18,2.54,1.91.88,4,1.34,5.84,2.48l1.89,2.83c-5.12,2.79-10.53,1.68-15.9,1.15-3.24-3.17-7.59-4.27-11.61-5.87C110,15.66,109.43,15.49,110,14Z" transform="translate(0 0)"/><path class="cls-171" d="M123,22.08c5.33,0,10.69.48,15.9-1.15a5.57,5.57,0,0,1,.1.82l-3,1.35h-14Z" transform="translate(0 0)"/><path class="cls-172" d="M109.29,20.12c.23.15.9.35.93.62.07.81-.65,1.08-1.32,1.18s-1.45,0-1.35-.92S108.42,20.16,109.29,20.12Z" transform="translate(0 0)"/><path class="cls-173" d="M120.24,23.19a7.15,7.15,0,0,1-4.18,1.91C116.87,23.18,118.42,22.9,120.24,23.19Z" transform="translate(0 0)"/><path class="cls-126" d="M132,17.09c-1.1-.33-2.23-1-3.3-.93A26.7,26.7,0,0,1,113,13.08c6.58-1.64,13-2.11,19,2A1.47,1.47,0,0,1,132,17.09Z" transform="translate(0 0)"/><path class="cls-174" d="M132,17.09l0-2.05c2.39-.16,3.91,1.07,5,3.06-.11.56-.49,1.67-.8,1.22C135.16,17.77,133.25,18.14,132,17.09Z" transform="translate(0 0)"/><path class="cls-175" d="M113.11,63.11a52.75,52.75,0,0,1,12.26-6.84c3.45-1.48,5.86,1,7.65,3.88a6.12,6.12,0,0,1,.09,5c-.66,2.85-2.83,4.4-5.08,5.86a.82.82,0,0,1-1.2.12c-.73-1.52.23-2.46,1.17-3.42,2.06-2.11,3.86-4.32,1.45-7.28s-4.66-1.15-6.93.2c-1.22.61-2.35,1.4-3.54,2.06-3.1.21-3.76,4.71-7.29,4.16C111.43,65.33,111.44,63.91,113.11,63.11Z" transform="translate(0 0)"/><path class="cls-147" d="M126.49,70.65,128,71c-3.41,2.2-6.68,4.6-11.15,4.08-3.36-.39-5-2.9-5.54-5.39-.47-2-2.09-5.33,1.77-6.6-.73,1.29-1.48,2.57-.93,4.15,1.18.7,1.66,2,2.53,2.95,1.91,2.11,4,3.35,6.8,1.28C123,70.38,124.61,69.61,126.49,70.65Z" transform="translate(0 0)"/><path class="cls-176" d="M355,265.14l14,0C364.29,267.51,359.62,268.19,355,265.14Z" transform="translate(0 0)"/><path class="cls-147" d="M116.05,101.05c0-3.67,0-7.34,0-11C119.33,93.73,118.32,97.39,116.05,101.05Z" transform="translate(0 0)"/><path class="cls-135" d="M449.91,248c3,1.24,6,0,9,.21C455.85,251.21,452.86,250.42,449.91,248Z" transform="translate(0 0)"/><path class="cls-138" d="M347,339.88a15.17,15.17,0,0,1-12,0Z" transform="translate(0 0)"/><path class="cls-97" d="M448.74,239.84c0,1.74.06,3.48.08,5.22C446.07,243.37,447.36,241.61,448.74,239.84Z" transform="translate(0 0)"/><path class="cls-133" d="M444.8,261.92q0,3.56,0,7.09A6.57,6.57,0,0,1,444.8,261.92Z" transform="translate(0 0)"/><path class="cls-147" d="M117.16,119.9a1.88,1.88,0,0,1-2.21-1.79l3.18.28Z" transform="translate(0 0)"/><path class="cls-177" d="M262.06,323.86,259,322C260,322.54,262.72,320.43,262.06,323.86Z" transform="translate(0 0)"/><path class="cls-147" d="M115,107c.33-1.67-.27-3.53,1-5C115.84,103.72,116.76,105.65,115,107Z" transform="translate(0 0)"/><path class="cls-147" d="M116,88.1c-1.26-1.51-.7-3.35-.93-5C116.69,84.49,115.88,86.38,116,88.1Z" transform="translate(0 0)"/><path class="cls-164" d="M133.11,65.16l-.09-5C134.64,61.79,134.47,63.47,133.11,65.16Z" transform="translate(0 0)"/><path class="cls-147" d="M115.07,83c-1.8-.78-2-2.28-1.84-4A6.5,6.5,0,0,1,115.07,83Z" transform="translate(0 0)"/><path class="cls-178" d="M80.06,72.12c-.69,3.14-3.24,1.51-5,1.94a6.38,6.38,0,0,1-4.62,1.38q-13.87.07-27.73,0a6.41,6.41,0,0,1-4.63-1.38c-2.86-.17-5.6-.15-7.59,2.49s-4.39,1.24-6.93.92c3.27-1,3.4-4.45,5.45-6.25,4.54,2.61,9.43.25,14.11,1a72.43,72.43,0,0,0,15.92,0L79,72A.59.59,0,0,1,80.06,72.12Z" transform="translate(0 0)"/><path class="cls-179" d="M59,72.22a32.18,32.18,0,0,1-15.93,0Z" transform="translate(0 0)"/><path class="cls-146" d="M80.06,72.12,79,72a11.66,11.66,0,0,1,10,0Z" transform="translate(0 0)"/><path class="cls-151" d="M94.06,100.05a3,3,0,0,1-1-2.65c-.13-5.34,1.17-10.67,0-16-.31-1.44-.16-3.07,1.94-3.3a8.51,8.51,0,0,1,4,1L99.15,81a1.88,1.88,0,0,1-1.74,1.38c-.3-.26-.49-.21-.54.15a2.84,2.84,0,0,1,.92,0c.69-.56,2.16,2.52,2.27-.5,1.43,1.06.78,2.65,1,4a31.22,31.22,0,0,1-1.67,4.47A93.83,93.83,0,0,0,94.06,100Z" transform="translate(0 0)"/><path class="cls-150" d="M99.05,90.05c.18-1.59-.64-3.7,2-4l1.94,2a40,40,0,0,1,0,12h0c-.75,1.29-.93,2.86-2,4h0c-1.46-1.22-4.29-1-4-4C95.3,96.23,98.18,93.34,99.05,90.05Z" transform="translate(0 0)"/><path class="cls-151" d="M103.06,100a48.35,48.35,0,0,1,0-12c1.83,1.73.61,4,1.09,6C103.66,96,104.88,98.31,103.06,100Z" transform="translate(0 0)"/><path class="cls-180" d="M99,79.06c-1.37-.14-2.92.45-4-1-.32-1-.65-2-1-3C96.64,75.24,97.31,77.76,99,79.06Z" transform="translate(0 0)"/><path class="cls-150" d="M100.06,82c.36,4.34-2.14.29-3,1-.26-.22-.34-.44-.26-.66s.17-.33.26-.33L99.15,81Z" transform="translate(0 0)"/><path class="cls-151" d="M101.06,104a5.46,5.46,0,0,1,2-4C103.09,101.73,102.87,103.29,101.06,104Z" transform="translate(0 0)"/><path class="cls-144" d="M87,113c1.83-1.59,4-.71,6.06-.9C91.25,113.79,89,112.81,87,113Z" transform="translate(0 0)"/><path class="cls-181" d="M75.07,76.06c0,1.45,0,2.91-2,3-.39-.29-.93-.92-1.14-.83-10.05,4.58-20-2.47-30.05-.23-1.48.33-3.46.5-3.8-1.94a4.27,4.27,0,0,1,2.78-1q15.7-.12,31.43,0A4.28,4.28,0,0,1,75.07,76.06Z" transform="translate(0 0)"/><path class="cls-182" d="M75.07,76.06h-37v-2h37C75.07,74.73,75.07,75.39,75.07,76.06Z" transform="translate(0 0)"/><path class="cls-151" d="M75.06,108c1.65-3,4.56-1.66,7-2C81.36,108.24,78.61,109,75.06,108Z" transform="translate(0 0)"/><path class="cls-155" d="M75.06,112c-2.12,0-4.24.07-6.34-.09-1.28-.1-1.68-.85-.65-1.91C70.4,110.71,73.58,108.39,75.06,112Z" transform="translate(0 0)"/><path class="cls-183" d="M90.06,98.05V89.29C90.69,92.23,92,95.2,90.06,98.05Z" transform="translate(0 0)"/><path class="cls-184" d="M93.06,108c-.2.68-.21,1.9-1.25,1.37-1.33-.68-.55-2.21-.75-3.37A1.84,1.84,0,0,1,93.06,108Z" transform="translate(0 0)"/><path class="cls-152" d="M90.57,78.91c0,.93-.68,1-1.32,1-.44,0-1.2-.12-1.29-.38-.26-.75.37-1.15,1-1.32A1.23,1.23,0,0,1,90.57,78.91Z" transform="translate(0 0)"/><path class="cls-185" d="M99.05,90.05c.17,3.5-1.4,6.65-2,10h-3C93.34,95.52,96,92.67,99.05,90.05Z" transform="translate(0 0)"/><path class="cls-79" d="M126.49,70.65a22.5,22.5,0,0,0-3.69,1.23c-5.83,3.09-8.62,1.9-10.62-4.62,2-2.09,3.2-5.12,6.62-5.47l.51.49c.08,1.52-1,2.4-1.91,3.32s-1.69,2.1-.63,3.47a3,3,0,0,0,3.54,1.1,21.37,21.37,0,0,0,4-1.92c2.14-1.26,4.79-2.48,4.1-5.53s-3.8-.85-5.54-1.89a2.16,2.16,0,0,1-1-.94c3.14-2.38,6.59-4.06,9.11.3,2.23,3.84.33,6.9-3.38,9C127.12,69.42,126.86,70.14,126.49,70.65Z" transform="translate(0 0)"/><path class="cls-79" d="M118.8,61.79c.9-.84,1.72-1.82,3.09-1.9l.46.51c.14,2.56-1.23,2.67-3.12,1.9Z" transform="translate(0 0)"/><path class="cls-180" d="M97.06,82.06v1c-1.14-.07-2.19-.33-2.6-1.56a1,1,0,0,1,.27-.73A2.62,2.62,0,0,1,97.06,82.06Z" transform="translate(0 0)"/><path class="cls-186" d="M119.23,62.3c1.34-.13,2.6-.42,3.12-1.9a1.3,1.3,0,0,1,.49-.1c2.37.36,5.6-2.48,7,1.2s-1.17,5.84-4.19,7.41c-.29.15-.51.52-.8.57-3,.59-5.92,5-9.17.6S117.82,64.8,119.23,62.3Z" transform="translate(0 0)"/></svg>